<svg width="13" height="20" viewBox="0 0 13 20" fill="none" xmlns="http://www.w3.org/2000/svg">
<path d="M5.37918 4.58392C5.37918 4.04047 5.81973 3.59991 6.36319 3.59991V3.59991V20H5.37918V4.58392Z" fill="#3CC3A5"/>
<path d="M6.36304 3.59991V3.59991C6.90649 3.59991 7.34704 4.04047 7.34704 4.58392V20H6.36304V3.59991Z" fill="#26849D"/>
<path d="M6.39767 15.0155H4.26513C1.90956 15.0155 0 13.106 0 10.7504H2.13253C4.48811 10.7504 6.39767 12.66 6.39767 15.0155Z" fill="#7DFF86"/>
<path d="M8.56152 17.5083H6.42892C6.42892 15.1527 8.33848 13.2431 10.6941 13.2431H12.8266C12.8317 15.5638 10.917 17.5157 8.56152 17.5083Z" fill="#3CC3A5"/>
<path d="M6.24666 4.10545C6.00094 3.36372 5.49463 2.73723 4.82092 2.34133L4.31583 2.04453C3.99805 1.8578 3.64947 1.76905 3.30509 1.76907C2.61816 1.76912 1.94835 2.12242 1.57592 2.75626C1.30504 3.21725 1.2299 3.75612 1.36433 4.27365C1.49875 4.79116 1.82669 5.22534 2.28766 5.49619L2.79276 5.79299C3.46649 6.18887 4.26027 6.32628 5.02775 6.17987L5.51911 6.08619L5.1894 6.46238C4.67436 7.05001 4.39072 7.80396 4.39072 8.58532V9.17115C4.39067 10.2749 5.28863 11.1729 6.39239 11.1729L7.28886 8.23985L6.39239 4.54538L6.24666 4.10545Z" fill="#F94850"/>
<path d="M11.2089 2.75629C10.8364 2.12238 10.1667 1.7691 9.47971 1.7691C9.13538 1.7691 8.78667 1.85788 8.46898 2.04456L7.96387 2.34137C7.29018 2.73726 6.78386 3.36375 6.53814 4.10548L6.3924 4.54539V11.1729C7.49615 11.1729 8.39411 10.2749 8.39411 9.17118V8.58535C8.39411 7.80397 8.11047 7.05004 7.59542 6.46241L7.26571 6.08622L7.75708 6.17991C8.52463 6.32633 9.31836 6.18887 9.99207 5.79302L10.4971 5.49622C10.9581 5.22537 11.2861 4.79117 11.4205 4.27368C11.5549 3.75615 11.4798 3.21728 11.2089 2.75629Z" fill="#D32C4D"/>
<path d="M4.39068 2.00171V2.58755C4.39068 3.36893 4.67432 4.12286 5.18937 4.71048L5.51908 5.08667L5.02771 4.99299C4.26016 4.84657 3.46643 4.98402 2.79272 5.37987L2.28765 5.67668C1.82666 5.94753 1.49874 6.38172 1.36431 6.89921C1.22989 7.41674 1.30502 7.95562 1.5759 8.41661C1.94838 9.05052 2.6181 9.40379 3.30508 9.40379C3.64941 9.40379 3.99812 9.31502 4.31581 9.12833L4.82092 8.83153C5.49461 8.43564 6.00093 7.80915 6.24664 7.06742L6.39237 6.62748L6.85225 4.54536L6.39239 0C5.28864 0 4.39068 0.897955 4.39068 2.00171Z" fill="#FC6666"/>
<path d="M11.4205 6.89921C11.286 6.3817 10.9581 5.94753 10.4971 5.67668L9.99203 5.37987C9.3183 4.984 8.52452 4.84659 7.75704 4.99299L7.26568 5.08667L7.59538 4.71048C8.11043 4.12286 8.39407 3.36891 8.39407 2.58755V2.00171C8.39409 0.897955 7.49614 0 6.39238 0V6.62751L6.53811 7.06744C6.78382 7.80917 7.29014 8.43566 7.96385 8.83155L8.46894 9.12835C8.78672 9.31509 9.1353 9.40384 9.47967 9.40381C10.1666 9.40377 10.8364 9.05047 11.2089 8.41663C11.4798 7.95562 11.5549 7.41674 11.4205 6.89921Z" fill="#F94850"/>
<path d="M6.06503 3.55008V5.39821L4.22878 6.46721L4.55814 7.03296L6.39239 5.96558L6.64022 4.98215L6.39239 3.55008H6.06503Z" fill="#FDB640"/>
<path d="M6.71969 5.39906V3.55008H6.39238V5.96558L8.2251 7.03296L8.55449 6.46721L6.71969 5.39906Z" fill="#FF8D56"/>
</svg>
