<svg width="12" height="12" viewBox="0 0 12 14" fill="none" xmlns="http://www.w3.org/2000/svg">
<path d="M5.82833 4.83637C5.53887 3.96258 4.94241 3.22456 4.14875 2.75818L3.55373 2.40853C3.17938 2.18856 2.76874 2.084 2.36305 2.08403C1.55382 2.08408 0.764759 2.50028 0.326014 3.24697C0.00691102 3.79004 -0.0815988 4.42485 0.0767574 5.03452C0.235114 5.64417 0.621441 6.15564 1.16448 6.47471L1.7595 6.82436C2.55318 7.29071 3.48828 7.45259 4.3924 7.28012L4.97125 7.16976L4.58284 7.61293C3.9761 8.30517 3.64196 9.19335 3.64196 10.1138V10.804C3.64191 12.1043 4.69973 13.1621 6 13.1621L7.05608 9.70685L6 5.35463L5.82833 4.83637Z" fill="#F94850"/>
<path d="M11.674 3.247C11.2352 2.50023 10.4463 2.08406 9.63697 2.08406C9.23134 2.08406 8.82054 2.18864 8.44629 2.40856L7.85125 2.75821C7.05762 3.22459 6.46116 3.96261 6.17169 4.8364L6 5.35463V13.1621C7.30027 13.1621 8.35809 12.1043 8.35809 10.804V10.1139C8.35809 9.19336 8.02395 8.3052 7.41721 7.61296L7.0288 7.16979L7.60765 7.28015C8.51184 7.45265 9.44689 7.29072 10.2406 6.82439L10.8355 6.47474C11.3786 6.15567 11.7649 5.64417 11.9233 5.03455C12.0816 4.42488 11.9931 3.79007 11.674 3.247Z" fill="#D32C4D"/>
<path d="M3.64191 2.35809V3.04823C3.64191 3.96873 3.97605 4.85688 4.58279 5.54913L4.9712 5.99229L4.39235 5.88193C3.48815 5.70944 2.5531 5.87137 1.75945 6.33769L1.16445 6.68734C0.621389 7.00642 0.235087 7.51791 0.0767307 8.12753C-0.0816255 8.7372 0.00688432 9.37202 0.325988 9.91508C0.764783 10.6618 1.55374 11.078 2.36302 11.078C2.76866 11.078 3.17946 10.9734 3.5537 10.7535L4.14875 10.4039C4.94238 9.9375 5.53884 9.19947 5.8283 8.32568L5.99997 7.80743L6.54173 5.3546L6 0C4.69973 0 3.64191 1.05782 3.64191 2.35809Z" fill="#FC6666"/>
<path d="M11.9233 8.12753C11.7649 7.51789 11.3786 7.00642 10.8355 6.68734L10.2405 6.33769C9.44684 5.87134 8.51175 5.70946 7.60762 5.88193L7.02878 5.99229L7.41719 5.54913C8.02393 4.85688 8.35807 3.9687 8.35807 3.04823V2.35809C8.35809 1.05782 7.30027 0 6 0V7.80745L6.17167 8.32571C6.46114 9.1995 7.05759 9.93752 7.85125 10.4039L8.44627 10.7535C8.82062 10.9735 9.23126 11.0781 9.63695 11.078C10.4462 11.078 11.2352 10.6618 11.674 9.91511C11.9931 9.37202 12.0816 8.7372 11.9233 8.12753Z" fill="#F94850"/>
<path d="M5.61437 4.18214V6.35931L3.45119 7.61863L3.83918 8.28511L6 7.0277L6.29196 5.86918L6 4.18214H5.61437Z" fill="#FDB640"/>
<path d="M6.38558 6.36031V4.18214H6V7.0277L8.15902 8.28511L8.54704 7.61863L6.38558 6.36031Z" fill="#FF8D56"/>
</svg>
