<svg width="14" height="20" viewBox="0 0 14 20" fill="none" xmlns="http://www.w3.org/2000/svg">
<path d="M5.48609 4.27755C5.48609 3.7233 5.9354 3.27399 6.48965 3.27399V3.27399V20H5.48609V4.27755Z" fill="#3CC3A5"/>
<path d="M6.4895 3.27399V3.27399C7.04375 3.27399 7.49306 3.7233 7.49306 4.27755V20H6.4895V3.27399Z" fill="#26849D"/>
<path d="M6.52482 14.9165H4.3499C1.94751 14.9165 0 12.969 0 10.5666H2.17492C4.57731 10.5666 6.52482 12.5141 6.52482 14.9165Z" fill="#7DFF86"/>
<path d="M8.73168 17.4587H6.55669C6.55669 15.0563 8.5042 13.1088 10.9066 13.1088H13.0815C13.0867 15.4756 11.1339 17.4664 8.73168 17.4587Z" fill="#3CC3A5"/>
<path d="M8.6641 5.63122C9.44455 5.10517 10.1345 4.56725 10.3859 4.31587C11.1172 3.58456 10.4081 1.64936 10.4081 1.64936C10.4081 1.64936 8.47288 0.94024 7.74157 1.67155C7.49019 1.92293 6.9523 2.61289 6.42622 3.39334V7.86913C6.95228 8.64958 7.49019 9.33954 7.74157 9.59092C8.47286 10.3222 10.4081 9.61309 10.4081 9.61309C10.4081 9.61309 11.1172 7.67784 10.3859 6.94658C10.1346 6.69524 9.44462 6.15732 8.6641 5.63122Z" fill="#C8DBFA"/>
<path d="M5.11087 1.67153C4.37958 0.940246 2.44435 1.64936 2.44435 1.64936C2.44435 1.64936 1.73523 3.58459 2.46652 4.31588C2.7179 4.56726 3.40786 5.10517 4.18831 5.63123C3.40786 6.15731 2.7179 6.6952 2.46652 6.94658C1.73521 7.67789 2.44433 9.6131 2.44433 9.6131C2.44433 9.6131 4.37953 10.3222 5.11084 9.5909C5.36222 9.33952 5.90012 8.64956 6.4262 7.86911V3.39333C5.90012 2.61283 5.3622 1.92287 5.11087 1.67153Z" fill="#DFECFC"/>
<path d="M4.55639 1.9012C4.55639 2.25671 4.66391 3.12493 4.84378 4.04878C3.91993 3.86891 3.05171 3.76139 2.69619 3.76139C1.66198 3.76139 0.794996 5.63122 0.794996 5.63122C0.794996 5.63122 1.66198 7.50105 2.69622 7.50105C3.05171 7.50105 3.91995 7.39353 4.8438 7.21366C4.66391 8.13751 4.55641 9.00573 4.55641 9.36125C4.55639 10.3954 6.42622 11.2624 6.42622 11.2624L7.53638 5.73494L6.42622 0C6.42622 0 4.55639 0.866988 4.55639 1.9012Z" fill="#F4F8FE"/>
<path d="M10.1562 3.76139C9.80073 3.76139 8.93249 3.86891 8.00864 4.04878C8.18853 3.12487 8.29603 2.25662 8.29603 1.90118C8.29605 0.866988 6.42622 0 6.42622 0V11.2624C6.42622 11.2624 8.29605 10.3954 8.29605 9.36125C8.29605 9.0058 8.18853 8.13756 8.00866 7.21364C8.93251 7.39353 9.80073 7.50103 10.1562 7.50103C11.1905 7.50105 12.0574 5.63122 12.0574 5.63122C12.0574 5.63122 11.1905 3.76139 10.1562 3.76139Z" fill="#DFECFC"/>
<path d="M6.09811 2.6684V4.38706H6.42622L6.59027 3.52773L6.42622 2.6684H6.09811Z" fill="#DFECFC"/>
<path d="M6.42622 2.6684H6.75433V4.38708H6.42622V2.6684Z" fill="#C8DBFA"/>
<path d="M6.09811 8.59406H6.42622L6.65246 7.73473L6.42622 6.8754H6.09811V8.59406Z" fill="#DFECFC"/>
<path d="M7.67036 5.3031H9.38905V5.95934H7.67036V5.3031Z" fill="#C8DBFA"/>
<path d="M3.46338 5.3031H5.18207V5.95934H3.46338V5.3031Z" fill="#DFECFC"/>
<path d="M6.42622 6.8754H6.75433V8.59409H6.42622V6.8754Z" fill="#C8DBFA"/>
<path d="M4.85396 5.63124C4.85396 6.49818 5.55929 7.20351 6.42621 7.20351L7.02055 5.63124L6.42621 4.05896C5.55927 4.05896 4.85396 4.76429 4.85396 5.63124Z" fill="#FDDA45"/>
<path d="M6.42621 4.05893V7.20348C7.29316 7.20348 7.99847 6.49815 7.99847 5.63121C7.99847 4.76426 7.29316 4.05893 6.42621 4.05893Z" fill="#FDB640"/>
</svg>
