<svg width="12" height="12" viewBox="0 0 12 12" fill="none" xmlns="http://www.w3.org/2000/svg">
<path d="M8.45866 6C9.29022 5.43949 10.0254 4.86635 10.2932 4.59851C11.0724 3.81931 10.3169 1.75737 10.3169 1.75737C10.3169 1.75737 8.25491 1.00182 7.47571 1.78102C7.20787 2.04886 6.63475 2.784 6.07422 3.61557V8.38446C6.63473 9.21603 7.20787 9.95117 7.47571 10.219C8.25489 10.9982 10.3169 10.2426 10.3169 10.2426C10.3169 10.2426 11.0724 8.18065 10.2932 7.40149C10.0254 7.1337 9.29029 6.56056 8.45866 6Z" fill="#C8DBFA"/>
<path d="M4.67272 1.78099C3.89354 1.00181 1.83158 1.75736 1.83158 1.75736C1.83158 1.75736 1.07603 3.81932 1.85521 4.5985C2.12305 4.86635 2.85819 5.43949 3.68975 5.99999C2.85819 6.56053 2.12305 7.13364 1.85521 7.40149C1.076 8.18069 1.83156 10.2426 1.83156 10.2426C1.83156 10.2426 3.8935 10.9982 4.6727 10.219C4.94054 9.95114 5.51366 9.21599 6.07419 8.38443V3.61553C5.51366 2.78392 4.94052 2.04878 4.67272 1.78099Z" fill="#DFECFC"/>
<path d="M4.08194 2.0257C4.08194 2.4045 4.1965 3.32958 4.38815 4.31393C3.4038 4.12228 2.47872 4.00772 2.09992 4.00772C0.997984 4.00772 0.0742188 6 0.0742188 6C0.0742188 6 0.997984 7.99228 2.09995 7.99228C2.47872 7.99228 3.40382 7.87772 4.38817 7.68607C4.1965 8.67042 4.08196 9.5955 4.08196 9.9743C4.08194 11.0762 6.07422 12 6.07422 12L7.25709 6.11051L6.07422 0C6.07422 0 4.08194 0.923766 4.08194 2.0257Z" fill="#F4F8FE"/>
<path d="M10.0485 4.00772C9.66972 4.00772 8.74462 4.12228 7.76027 4.31393C7.95194 3.32951 8.06648 2.40441 8.06648 2.02568C8.0665 0.923766 6.07422 0 6.07422 0V12C6.07422 12 8.0665 11.0762 8.0665 9.9743C8.0665 9.59557 7.95194 8.67047 7.76029 7.68605C8.74464 7.87772 9.66972 7.99226 10.0485 7.99226C11.1505 7.99228 12.0742 6 12.0742 6C12.0742 6 11.1505 4.00772 10.0485 4.00772Z" fill="#DFECFC"/>
<path d="M5.72462 2.84314V4.67436H6.07422L6.24902 3.75875L6.07422 2.84314H5.72462Z" fill="#DFECFC"/>
<path d="M6.07422 2.84314H6.42381V4.67438H6.07422V2.84314Z" fill="#C8DBFA"/>
<path d="M5.72462 9.15687H6.07422L6.31527 8.24126L6.07422 7.32565H5.72462V9.15687Z" fill="#DFECFC"/>
<path d="M7.39984 5.65041H9.23108V6.34962H7.39984V5.65041Z" fill="#C8DBFA"/>
<path d="M2.91735 5.65041H4.74859V6.34962H2.91735V5.65041Z" fill="#DFECFC"/>
<path d="M6.07422 7.32565H6.42381V9.1569H6.07422V7.32565Z" fill="#C8DBFA"/>
<path d="M4.399 6C4.399 6.92371 5.15053 7.67524 6.07422 7.67524L6.70748 6L6.07422 4.32475C5.1505 4.32475 4.399 5.07628 4.399 6Z" fill="#FDDA45"/>
<path d="M6.07422 4.32475V7.67524C6.99794 7.67524 7.74944 6.92371 7.74944 6C7.74944 5.07628 6.99794 4.32475 6.07422 4.32475Z" fill="#FDB640"/>
</svg>
