<svg width="14" height="20" viewBox="0 0 14 20" fill="none" xmlns="http://www.w3.org/2000/svg">
<path d="M5.7589 3.49574C5.7589 2.91393 6.23055 2.44228 6.81236 2.44228V2.44228V20H5.7589V3.49574Z" fill="#3CC3A5"/>
<path d="M6.81209 2.44226V2.44226C7.3939 2.44226 7.86555 2.91391 7.86555 3.49572V20H6.81209V2.44226Z" fill="#26849D"/>
<path d="M9.16584 17.3324H6.88271C6.88271 14.8106 8.92706 12.7662 11.4489 12.7662H13.732C13.7374 15.2507 11.6875 17.3404 9.16584 17.3324Z" fill="#3CC3A5"/>
<path d="M6.84926 15.5662H4.5662C2.04435 15.5662 0 13.5218 0 11H2.28306C4.80491 11 6.84926 13.0443 6.84926 15.5662Z" fill="#7DFF86"/>
<path d="M12.1642 2.12305L12.1542 2.10557L12.1422 2.08934C11.5172 1.24102 10.732 0.562029 9.93106 0.177422C8.9648 -0.286567 7.74134 0.240784 6.86841 0.825345C6.55388 1.03598 6.48279 1.10972 6.44935 1.16054C6.44935 1.16054 8.96215 3.80109 8.96707 3.80794C8.94262 3.77394 12.4433 4.44615 12.4433 4.44615C12.461 4.40209 12.8674 3.35282 12.1642 2.12305Z" fill="#A0184B"/>
<path d="M6.86841 0.825348V3.52347L7.53191 1.92059C7.43354 1.45314 7.20723 1.08193 6.86841 0.825348Z" fill="#F94850"/>
<path d="M4.38199 7.72325L3.54979 9.10442C3.58304 9.15192 4.37398 10.2735 5.24647 10.7649C5.55799 10.9403 6.04819 11.0054 6.55931 11.0054C6.66194 11.0054 6.76537 11.0025 6.86841 10.9976L7.7666 9.59724L6.86841 7.62689L4.38199 7.72325Z" fill="#D32C4D"/>
<path d="M7.239 7.47076L6.86842 7.62688V10.9976C7.11065 10.9861 7.35054 10.9624 7.57127 10.9308C8.05098 10.8619 8.51204 10.7495 8.90462 10.6057C9.36577 10.4368 9.72477 10.2291 9.97162 9.98837C10.2722 9.69529 10.4776 9.31179 10.5657 8.8794L7.239 7.47076Z" fill="#BA1347"/>
<path d="M6.41334 0.575315C5.99816 0.41655 5.50327 0.385646 4.98228 0.486018C4.50408 0.578124 4.03879 0.776987 3.67211 1.04597C3.44478 1.21272 3.20696 1.35203 2.97698 1.48676C2.45827 1.79064 1.92188 2.10485 1.53061 2.72275C1.10677 3.39211 0.914335 4.31946 0.925016 5.64124C0.930681 6.34119 1.03175 6.99868 1.22541 7.59534L1.23391 7.62127C1.46395 8.31461 2.00677 8.86968 2.68597 9.10607C2.91023 9.18413 3.13837 9.22267 3.36149 9.22267C3.71817 9.22267 4.06201 9.12411 4.35664 8.93084L4.73196 8.68464L6.86842 3.52347L7.3804 2.47135L6.86842 0.82535C6.73408 0.723608 6.58212 0.639861 6.41334 0.575315Z" fill="#FC6D6E"/>
<path d="M12.8119 5.30516C12.7699 3.95478 11.6735 2.83622 10.3678 2.81168L9.9144 2.80316L6.77917 7.27514C6.79173 7.47816 6.81739 7.665 6.88361 7.8412C7.12417 8.48132 7.73859 8.96957 8.50207 9.01292L9.88544 8.98039C10.7503 8.87043 11.9478 8.55353 12.3608 7.07714C12.8164 5.44839 12.8142 5.37881 12.8119 5.30516Z" fill="#D32C4D"/>
<path d="M6.8452 7.47078L5.76496 2.48303L5.07628 2.47163C4.68785 2.46529 4.2891 2.5713 3.95374 2.77042C3.59593 2.98287 3.32746 3.28421 3.17737 3.64193C3.01285 4.03404 2.87189 4.50339 2.74642 5.07683C2.58668 5.80704 2.7125 6.56711 3.11025 7.27486C3.46711 7.90985 4.0201 8.47085 4.70942 8.89715C5.00554 9.0803 5.33319 9.17243 5.65374 9.17243C5.9409 9.17243 6.22237 9.09845 6.47034 8.94974C6.9768 8.64593 6.8452 7.47078 6.8452 7.47078Z" fill="#F94850"/>
<path d="M5.65031 2.20315C5.23066 2.6516 5.02602 3.27327 5.07406 3.95363L5.10986 4.46064L6.86842 6.10218L7.28994 3.39867L6.86842 1.59479C6.39484 1.65104 5.96974 1.86173 5.65031 2.20315Z" fill="#D32C4D"/>
<path d="M11.0179 5.37855L11.0156 5.35078C10.8651 4.12392 10.4499 3.17753 9.78156 2.53791C9.12886 1.9133 8.24971 1.59076 7.16842 1.57922L7.1368 1.57899C7.04583 1.57857 6.95639 1.5843 6.86842 1.59475V6.10214L8.46468 7.59218C8.46468 7.59218 8.86522 7.61563 8.89926 7.61563C9.47341 7.61563 10.0033 7.40068 10.4004 7.00435C10.8249 6.5808 11.0442 6.00342 11.0179 5.37855Z" fill="#BA1347"/>
<path d="M6.67812 4.37712L5.73024 4.14229C5.33447 4.04424 4.91102 4.14907 4.61961 4.43426C4.6093 4.44434 4.59915 4.45465 4.58915 4.46514C4.34438 4.72214 4.22017 5.08313 4.24838 5.45555L4.27343 5.78639C4.32411 6.45553 4.62683 6.99558 5.14884 7.34815C5.58288 7.6413 6.16147 7.80687 6.86844 7.84042L7.63891 5.96486L6.86842 4.08931C6.79307 4.2015 6.73215 4.30461 6.67812 4.37712Z" fill="#BA1347"/>
<path d="M9.66747 5.91024C9.64789 5.51632 9.5804 4.94158 9.37014 4.44072C9.01571 3.59649 8.44309 3.40826 8.02512 3.399C7.40752 3.38544 7.08037 3.77367 6.86842 4.08929V7.84042C6.87076 7.84054 6.87304 7.84072 6.87538 7.84084C6.96414 7.84495 7.04989 7.8469 7.13287 7.8469C8.34474 7.8469 8.95019 7.42949 9.20979 7.16898C9.53399 6.84365 9.69224 6.40838 9.66747 5.91024Z" fill="#A0184B"/>
<path d="M6.86842 4.12219C6.22396 4.12219 5.69965 4.6465 5.69965 5.29097C5.69965 5.93543 6.22396 6.45976 6.86842 6.45976L7.28994 5.29097L6.86842 4.12219Z" fill="#F94850"/>
<path d="M8.03721 5.29098C8.03721 4.64652 7.5129 4.12221 6.86842 4.12221V6.45978C7.51288 6.45975 8.03721 5.93544 8.03721 5.29098Z" fill="#D32C4D"/>
</svg>
