<svg width="12" height="12" viewBox="0 0 12 12" fill="none" xmlns="http://www.w3.org/2000/svg">
<path d="M3.49008 8.27695L2.65001 9.67118C2.68357 9.71913 3.48199 10.8513 4.36273 11.3474C4.67719 11.5244 5.17202 11.5901 5.68798 11.5901C5.79157 11.5901 5.89599 11.5872 6 11.5822L6.90668 10.1687L6 8.17969L3.49008 8.27695Z" fill="#D32C4D"/>
<path d="M6.37409 8.02209L6 8.17969V11.5823C6.24452 11.5707 6.48668 11.5468 6.7095 11.5148C7.19374 11.4453 7.65916 11.3319 8.05545 11.1867C8.52096 11.0161 8.88335 10.8065 9.13254 10.5635C9.43598 10.2676 9.64334 9.88052 9.73223 9.44405L6.37409 8.02209Z" fill="#BA1347"/>
<path d="M11.3458 2.62383L11.3357 2.60618L11.3237 2.5898C10.6928 1.73346 9.90007 1.04805 9.0916 0.659812C8.1162 0.191437 6.88118 0.723773 6 1.31386C5.6825 1.52648 5.61073 1.60092 5.57698 1.65223C5.57698 1.65223 8.11353 4.31773 8.1185 4.32464C8.09382 4.29033 11.6276 4.96889 11.6276 4.96889C11.6454 4.9244 12.0557 3.86522 11.3458 2.62383Z" fill="#A0184B"/>
<path d="M5.54063 1.06146C5.12152 0.901195 4.62195 0.87 4.09603 0.97132C3.61332 1.0643 3.14363 1.26504 2.77348 1.53656C2.544 1.70489 2.30393 1.84552 2.07178 1.98152C1.54817 2.28827 1.00671 2.60545 0.611745 3.2292C0.183893 3.90487 -0.0103566 4.84099 0.000424669 6.17526C0.00614342 6.88184 0.108167 7.54554 0.303659 8.14783L0.312237 8.17401C0.544456 8.87391 1.0924 9.43422 1.77802 9.67284C2.0044 9.75164 2.2347 9.79055 2.45993 9.79055C2.81998 9.79055 3.16707 9.69105 3.46449 9.49596L3.84335 9.24743L6 4.03748L6.51682 2.97541L6 1.31386C5.86439 1.21116 5.71099 1.12662 5.54063 1.06146Z" fill="#FC6D6E"/>
<path d="M6 1.31386V4.03748L6.66977 2.41945C6.57047 1.94758 6.34202 1.57287 6 1.31386Z" fill="#F94850"/>
<path d="M11.9997 5.83601C11.9573 4.47286 10.8505 3.34374 9.53241 3.31897L9.07477 3.31036L5.90991 7.82461C5.92259 8.02955 5.94849 8.21815 6.01533 8.39602C6.25817 9.04219 6.8784 9.53506 7.64909 9.57881L9.04554 9.54598C9.91854 9.43498 11.1274 9.11508 11.5443 7.62474C12.0042 5.9806 12.002 5.91036 11.9997 5.83601Z" fill="#D32C4D"/>
<path d="M5.97657 8.02209L4.88611 2.9872L4.19093 2.97569C3.79882 2.96929 3.39631 3.07631 3.05778 3.27731C2.69658 3.49176 2.42557 3.79595 2.27407 4.15706C2.108 4.55287 1.96571 5.02666 1.83905 5.60552C1.6778 6.34263 1.80481 7.10988 2.20632 7.82432C2.56655 8.46531 3.12476 9.03161 3.8206 9.46195C4.11952 9.64682 4.45027 9.73982 4.77385 9.73982C5.06372 9.73982 5.34786 9.66515 5.59817 9.51503C6.10941 9.20835 5.97657 8.02209 5.97657 8.02209Z" fill="#F94850"/>
<path d="M4.77037 2.70467C4.34677 3.15737 4.14019 3.7849 4.18868 4.47169L4.22482 4.9835L6 6.64055L6.42551 3.91149L6 2.09056C5.52195 2.14735 5.09283 2.36002 4.77037 2.70467Z" fill="#D32C4D"/>
<path d="M10.1887 5.9101L10.1864 5.88207C10.0345 4.64361 9.61537 3.68827 8.94068 3.04261C8.2818 2.4121 7.39434 2.0865 6.30284 2.07486L6.27091 2.07462C6.17909 2.0742 6.0888 2.07999 6 2.09054V6.64053L7.61135 8.14465C7.61135 8.14465 8.01567 8.16832 8.05003 8.16832C8.62962 8.16832 9.16448 7.95134 9.56541 7.55126C9.99387 7.12371 10.2152 6.54087 10.1887 5.9101Z" fill="#BA1347"/>
<path d="M5.80791 4.89919L4.85107 4.66214C4.45156 4.56317 4.0241 4.66899 3.72994 4.95687C3.71953 4.96704 3.70929 4.97745 3.69919 4.98804C3.45211 5.24747 3.32672 5.61188 3.3552 5.98781L3.38049 6.32177C3.43165 6.99724 3.73723 7.5424 4.26417 7.8983C4.70232 8.19422 5.28638 8.36135 6.00003 8.39522L6.77778 6.50194L6 4.60866C5.92395 4.72191 5.86245 4.82599 5.80791 4.89919Z" fill="#BA1347"/>
<path d="M8.82551 6.44679C8.80575 6.04915 8.73762 5.46898 8.52537 4.96339C8.16759 4.11118 7.58955 3.92117 7.16763 3.91182C6.5442 3.89813 6.21396 4.29003 6 4.60864V8.39522C6.00237 8.39534 6.00466 8.39553 6.00703 8.39564C6.09663 8.39979 6.18319 8.40176 6.26695 8.40176C7.49027 8.40176 8.10145 7.9804 8.36351 7.71743C8.69077 7.38903 8.85052 6.94964 8.82551 6.44679Z" fill="#A0184B"/>
<path d="M6 4.64186C5.34945 4.64186 4.82018 5.17113 4.82018 5.82168C4.82018 6.47224 5.34945 7.00152 6 7.00152L6.42551 5.82168L6 4.64186Z" fill="#F94850"/>
<path d="M7.17984 5.8217C7.17984 5.17114 6.65058 4.64188 6 4.64188V7.00154C6.65055 7.00152 7.17984 6.47225 7.17984 5.8217Z" fill="#D32C4D"/>
</svg>
