<svg width="12" height="12" viewBox="0 0 6 7" fill="none" xmlns="http://www.w3.org/2000/svg">
<path d="M2.03144 0.598552L0.708603 3.24385C-0.13276 4.92631 1.0377 6.94437 2.91801 6.99882C2.94524 6.99961 2.97255 7 2.99997 7L3.27341 3.71528L2.99997 0C2.61549 0 2.231 0.199528 2.03144 0.598552Z" fill="#B56D3C"/>
<path d="M5.29137 3.24385L3.96853 0.598551C3.76899 0.199527 3.3845 1.52588e-05 3 1.52588e-05V7C3.02742 7 3.05473 6.99961 3.08196 6.99882C4.96228 6.94435 6.13273 4.92631 5.29137 3.24385Z" fill="#8F562F"/>
<path d="M2.43596 0.598552L1.66558 3.24385C1.17561 4.92631 1.85724 6.94435 2.95226 6.9988C2.96811 6.99959 2.98402 6.99998 2.99999 6.99998L3.27343 3.97851L2.99999 0C2.77609 0 2.55217 0.199528 2.43596 0.598552Z" fill="#C9885B"/>
<path d="M4.33441 3.24385L3.56404 0.598551C3.44783 0.199527 3.22392 1.52588e-05 3 1.52588e-05V7C3.01596 7 3.03188 6.99961 3.04773 6.99882C4.14277 6.94435 4.8244 4.92631 4.33441 3.24385Z" fill="#B56D3C"/>
</svg>
