<svg width="20" height="20" viewBox="0 0 10 15" fill="none" xmlns="http://www.w3.org/2000/svg">
<path d="M4.23438 3.58624C4.23438 3.18387 4.56055 2.8577 4.96291 2.8577V15H4.23438V3.58624Z" fill="#3CC3A5"/>
<path d="M4.96265 2.8577C5.36501 2.8577 5.69119 3.18387 5.69119 3.58624V15H4.96265V2.8577Z" fill="#26849D"/>
<path d="M4.98843 11.3096H3.40954C1.66551 11.3096 0.251709 9.89576 0.251709 8.15173H1.8306C3.57462 8.15173 4.98843 9.56554 4.98843 11.3096Z" fill="#7DFF86"/>
<path d="M6.59041 13.1552H5.01147C5.01147 11.4112 6.42528 9.99738 8.1693 9.99738H9.74819C9.75198 11.7156 8.33434 13.1607 6.59041 13.1552Z" fill="#3CC3A5"/>
<path d="M2.87144 5.89082C2.59686 6.61136 2.85467 7.4148 2.86584 7.44857L2.93244 7.65142L3.14134 7.60763C3.17627 7.60042 4.00091 7.4218 4.48765 6.82374L4.69607 4.69006L2.87144 5.89082Z" fill="#FDBF00"/>
<path d="M2.44 3.13699C1.67894 3.25949 1.09597 3.88432 1.07222 3.91087L0.929932 4.06993L1.07222 4.22899C1.09597 4.25554 1.67894 4.88037 2.44 5.00287L3.99637 4.06993L2.44 3.13699Z" fill="#FDBF00"/>
<path d="M3.14134 0.532187L2.93244 0.488403L2.86584 0.691248C2.85467 0.725016 2.59686 1.52846 2.87144 2.249L4.21936 2.9721L4.48765 1.31606C4.00092 0.718021 3.17627 0.539405 3.14134 0.532187Z" fill="#FDBF00"/>
<path d="M3.53304 4.20174C3.12573 4.18614 2.75195 4.26625 2.45782 4.43625C1.69 4.87943 1.4711 5.88618 1.46224 5.92881L1.41846 6.13771L1.6213 6.2043C1.64575 6.21222 1.99671 6.3247 2.43826 6.3247C2.74543 6.3247 3.09662 6.2702 3.41171 6.08833C3.7105 5.91577 3.95969 5.64143 4.15344 5.27207L3.53304 4.20174Z" fill="#FFDA2D"/>
<path d="M3.41171 2.05153C2.64365 1.60835 1.66275 1.92181 1.6213 1.93555L1.41846 2.00215L1.46224 2.21105C1.4711 2.25367 1.69 3.26042 2.45782 3.7036C2.75359 3.8743 3.12713 3.95489 3.54096 3.93765L4.15391 2.86872C3.96015 2.49866 3.71072 2.22408 3.41171 2.05153Z" fill="#FFDA2D"/>
<path d="M7.13443 0.691248L7.06783 0.488403L6.85893 0.532187C6.824 0.539405 5.99936 0.718021 5.51262 1.31608L5.3042 3.44976L7.12885 2.24902C7.40341 1.52848 7.14561 0.725016 7.13443 0.691248Z" fill="#FF9100"/>
<path d="M8.92781 3.91087C8.90406 3.88432 8.32109 3.25949 7.56003 3.13699L6.00366 4.06993L7.56003 5.00287C8.32109 4.88037 8.90406 4.25554 8.92781 4.22899L9.0701 4.06993L8.92781 3.91087Z" fill="#FF9100"/>
<path d="M7.12866 5.89085L5.78073 5.16776L5.51245 6.82379C5.99917 7.42183 6.82381 7.60046 6.85876 7.60768L7.06766 7.65146L7.13426 7.44862C7.14543 7.41485 7.40324 6.61139 7.12866 5.89085Z" fill="#FF9100"/>
<path d="M8.37881 1.93556C8.33713 1.92182 7.35599 1.60812 6.58841 2.05154C6.28962 2.2241 6.04043 2.49843 5.84668 2.8678L6.46707 3.93813C6.87462 3.95164 7.24817 3.87339 7.5423 3.70361C8.31012 3.26043 8.52902 2.25368 8.53788 2.21106L8.58166 2.00216L8.37881 1.93556Z" fill="#FDBF00"/>
<path d="M8.53762 5.92884C8.52877 5.88622 8.30986 4.87946 7.54204 4.43629C7.24605 4.26535 6.87041 4.18198 6.4589 4.20223L5.84595 5.27116C6.03971 5.64121 6.28912 5.91579 6.58815 6.08835C6.90324 6.27022 7.25443 6.32472 7.5616 6.32472C8.00314 6.32472 8.35411 6.21224 8.37856 6.20432L8.5814 6.13773L8.53762 5.92884Z" fill="#FDBF00"/>
<path d="M5.95392 6.37357C5.95392 7.2607 5.19083 7.96817 5.15744 7.99679L5.00003 8.13987L4.84263 7.99679C4.80924 7.96817 4.04614 7.2607 4.04614 6.37355C4.04614 6.03494 4.16061 5.67246 4.38 5.32429L5.00003 5.31952H5.61528C5.83946 5.67247 5.95392 6.03018 5.95392 6.37357Z" fill="#FFDA2D"/>
<path d="M5.61524 5.31955C5.83942 5.67249 5.95389 6.0302 5.95389 6.37358C5.95389 7.26072 5.19079 7.96819 5.15741 7.9968L5 8.13989V5.31955H5.61524Z" fill="#FDBF00"/>
<path d="M5.95392 1.76627C5.95392 2.13354 5.82036 2.52937 5.56283 2.9014H4.43724C4.1797 2.52937 4.04614 2.13352 4.04614 1.76627C4.04614 0.879169 4.80924 0.1717 4.84263 0.143084L5.00003 0L5.15744 0.143084C5.19083 0.1717 5.95392 0.879169 5.95392 1.76627Z" fill="#FFDA2D"/>
<path d="M5.5628 2.90142H5V0L5.15741 0.143084C5.19079 0.1717 5.95389 0.879169 5.95389 1.76629C5.95389 2.13354 5.82033 2.52938 5.5628 2.90142Z" fill="#FDBF00"/>
<path d="M4.99988 2.4006C4.07937 2.4006 3.33057 3.14941 3.33057 4.06991C3.33057 4.99042 4.07937 5.73922 4.99988 5.73922C5.92038 5.73922 6.66918 4.99042 6.66918 4.06991C6.66918 3.14941 5.92038 2.4006 4.99988 2.4006Z" fill="#895D3C"/>
<path d="M6.66931 4.06991C6.66931 4.99042 5.9205 5.73922 5 5.73922V2.4006C5.9205 2.4006 6.66931 3.14941 6.66931 4.06991Z" fill="#714C2F"/>
<path d="M5.23842 3.35452H4.76147V3.83147H5.23842V3.35452Z" fill="#714C2F"/>
<path d="M5.23842 4.30841H4.76147V4.78536H5.23842V4.30841Z" fill="#714C2F"/>
<path d="M4.76161 3.83145H4.28467V4.3084H4.76161V3.83145Z" fill="#714C2F"/>
<path d="M5.71547 3.83145H5.23853V4.3084H5.71547V3.83145Z" fill="#523522"/>
<path d="M5.23847 3.35452H5V3.83147H5.23847V3.35452Z" fill="#523522"/>
<path d="M5.23847 4.30841H5V4.78536H5.23847V4.30841Z" fill="#523522"/>
</svg>
