<svg width="12" height="12" viewBox="0 0 12 12" fill="none" xmlns="http://www.w3.org/2000/svg">
<path d="M2.86189 8.68443C2.4571 9.74667 2.83716 10.9311 2.85364 10.9809L2.95182 11.2799L3.25979 11.2154C3.31128 11.2048 4.52698 10.9414 5.24455 10.0598L5.55181 6.91425L2.86189 8.68443Z" fill="#FDBF00"/>
<path d="M2.22619 4.62463C1.10421 4.80522 0.244781 5.72636 0.209766 5.7655L0 5.99999L0.209766 6.23449C0.244781 6.27363 1.10421 7.19477 2.22619 7.37535L4.52063 5.99999L2.22619 4.62463Z" fill="#FDBF00"/>
<path d="M3.25979 0.784579L2.95182 0.720032L2.85364 1.01907C2.83716 1.06885 2.4571 2.25331 2.86189 3.31555L4.84904 4.38156L5.24455 1.94019C4.52701 1.05854 3.31128 0.795219 3.25979 0.784579Z" fill="#FDBF00"/>
<path d="M3.83759 6.19431C3.23712 6.17132 2.68608 6.28942 2.25246 6.54004C1.12053 7.19338 0.797816 8.67756 0.784762 8.7404L0.720215 9.04837L1.01925 9.14655C1.0553 9.15822 1.57268 9.32404 2.22364 9.32404C2.67647 9.32404 3.19421 9.2437 3.65871 8.97557C4.0992 8.72118 4.46656 8.31674 4.75219 7.77222L3.83759 6.19431Z" fill="#FFDA2D"/>
<path d="M3.65872 3.02438C2.52643 2.37104 1.08036 2.83316 1.01925 2.85341L0.720215 2.95159L0.784762 3.25956C0.797816 3.32239 1.12053 4.80657 2.25246 5.45991C2.6885 5.71156 3.23918 5.83037 3.84926 5.80496L4.75289 4.22912C4.46724 3.68356 4.09953 3.27877 3.65872 3.02438Z" fill="#FFDA2D"/>
<path d="M9.14666 1.01907L9.04848 0.720032L8.74051 0.784579C8.68902 0.795219 7.47331 1.05854 6.75575 1.94021L6.44849 5.08573L9.13843 3.31557C9.5432 2.25334 9.16313 1.06885 9.14666 1.01907Z" fill="#FF9100"/>
<path d="M11.7904 5.7655C11.7553 5.72636 10.8959 4.80522 9.77393 4.62463L7.47949 5.99999L9.77393 7.37535C10.8959 7.19477 11.7553 6.27363 11.7904 6.23449L12.0001 5.99999L11.7904 5.7655Z" fill="#FF9100"/>
<path d="M9.13827 8.68445L7.15112 7.61844L6.75562 10.0598C7.47315 10.9415 8.68886 11.2048 8.74037 11.2154L9.04834 11.28L9.14652 10.9809C9.163 10.9312 9.54306 9.74668 9.13827 8.68445Z" fill="#FF9100"/>
<path d="M10.981 2.85343C10.9195 2.83318 9.47311 2.37072 8.34152 3.02441C7.90104 3.2788 7.53368 3.68324 7.24805 4.22776L8.16265 5.80567C8.76347 5.82559 9.31416 5.71023 9.74777 5.45994C10.8797 4.8066 11.2024 3.32242 11.2155 3.25958L11.28 2.95161L10.981 2.85343Z" fill="#FDBF00"/>
<path d="M11.2152 8.74042C11.2021 8.67758 10.8794 7.1934 9.7475 6.54006C9.31114 6.28806 8.75736 6.16515 8.1507 6.19501L7.24707 7.77086C7.53273 8.31639 7.90041 8.72118 8.34125 8.97557C8.80576 9.24369 9.32349 9.32404 9.77633 9.32404C10.4273 9.32404 10.9447 9.15822 10.9807 9.14654L11.2798 9.04836L11.2152 8.74042Z" fill="#FDBF00"/>
<path d="M7.40625 9.39607C7.40625 10.7039 6.28127 11.7469 6.23205 11.7891L6 12L5.76795 11.7891C5.71873 11.7469 4.59375 10.7039 4.59375 9.39605C4.59375 8.89685 4.7625 8.36248 5.08594 7.84919L6 7.84216H6.90701C7.2375 8.3625 7.40625 8.88984 7.40625 9.39607Z" fill="#FFDA2D"/>
<path d="M6.90701 7.84219C7.2375 8.36251 7.40625 8.88985 7.40625 9.39608C7.40625 10.7039 6.28127 11.7469 6.23205 11.7891L6 12V7.84219H6.90701Z" fill="#FDBF00"/>
<path d="M7.40625 2.60388C7.40625 3.14531 7.20935 3.72886 6.82969 4.27732H5.17031C4.79065 3.72886 4.59375 3.14529 4.59375 2.60388C4.59375 1.29609 5.71873 0.253125 5.76795 0.210938L6 0L6.23205 0.210938C6.28127 0.253125 7.40625 1.29609 7.40625 2.60388Z" fill="#FFDA2D"/>
<path d="M6.82969 4.27734H6V0L6.23205 0.210938C6.28127 0.253125 7.40625 1.29609 7.40625 2.60391C7.40625 3.14531 7.20935 3.72888 6.82969 4.27734Z" fill="#FDBF00"/>
<path d="M6 3.53906C4.64297 3.53906 3.53906 4.64297 3.53906 6C3.53906 7.35703 4.64297 8.46094 6 8.46094C7.35703 8.46094 8.46094 7.35703 8.46094 6C8.46094 4.64297 7.35703 3.53906 6 3.53906Z" fill="#895D3C"/>
<path d="M8.46094 6C8.46094 7.35703 7.35703 8.46094 6 8.46094V3.53906C7.35703 3.53906 8.46094 4.64297 8.46094 6Z" fill="#714C2F"/>
<path d="M6.35156 4.94531H5.64844V5.64844H6.35156V4.94531Z" fill="#714C2F"/>
<path d="M6.35156 6.35156H5.64844V7.05469H6.35156V6.35156Z" fill="#714C2F"/>
<path d="M5.64844 5.64844H4.94531V6.35156H5.64844V5.64844Z" fill="#714C2F"/>
<path d="M7.05469 5.64844H6.35156V6.35156H7.05469V5.64844Z" fill="#523522"/>
<path d="M6.35156 4.94531H6V5.64844H6.35156V4.94531Z" fill="#523522"/>
<path d="M6.35156 6.35156H6V7.05469H6.35156V6.35156Z" fill="#523522"/>
</svg>
