<svg width="10" height="12" viewBox="0 0 10 12" fill="none" xmlns="http://www.w3.org/2000/svg">
<path d="M4.95654 4.84992L2.32727 2.61448L4.95654 0L7.58589 2.61448L4.95654 4.84992Z" fill="#FCACAB"/>
<path d="M4.99988 4.84992V0L7.58608 2.61448L4.99988 4.84992Z" fill="#F99295"/>
<path d="M9.34783 1.78682C7.48726 1.78682 5.86102 2.79514 5 4.28717C4.13902 2.79514 2.51274 1.78682 0.65217 1.78682H0V6.72183C0 9.44301 2.24298 11.6568 5 11.6568C7.75702 11.6568 10 9.44301 10 6.72183V1.78682H9.34783Z" fill="#F9C0C0"/>
<path d="M9.34291 1.78682C7.49448 1.78682 5.87612 2.76798 4.99988 4.22626V11.6568C7.76027 11.6373 9.99988 9.4313 9.99988 6.72208V1.78682H9.34291Z" fill="#FCACAB"/>
</svg>
