<svg width="20" height="20" viewBox="0 0 12 15" fill="none" xmlns="http://www.w3.org/2000/svg">
<path d="M5.15356 2.55464C5.15356 2.10976 5.51421 1.74911 5.95909 1.74911V15H5.15356V2.55464Z" fill="#3CC3A5"/>
<path d="M5.95898 1.74911C6.40386 1.74911 6.76451 2.10976 6.76451 2.55464V15H5.95898V1.74911Z" fill="#26849D"/>
<path d="M5.98725 10.9726H4.24152C2.3132 10.9726 0.75 9.42976 0.75 7.5265H2.49573C4.42405 7.5265 5.98725 9.06938 5.98725 10.9726Z" fill="#7DFF86"/>
<path d="M7.75872 12.9868H6.01294C6.01294 11.0835 7.57614 9.54065 9.50446 9.54065H11.2502C11.2544 11.4157 9.68693 12.9928 7.75872 12.9868Z" fill="#3CC3A5"/>
<path d="M5.98488 3.12538L4.29053 1.68482L5.98488 0L7.67928 1.68482L5.98488 3.12538Z" fill="#FCACAB"/>
<path d="M6.01294 3.12538V0L7.67954 1.68482L6.01294 3.12538Z" fill="#F99295"/>
<path d="M8.81469 1.15146C7.6157 1.15146 6.56773 1.80124 6.01287 2.76273C5.45804 1.80124 4.41003 1.15146 3.21104 1.15146H2.79077V4.33167C2.79077 6.08525 4.23619 7.51188 6.01287 7.51188C7.78954 7.51188 9.23496 6.08525 9.23496 4.33167V1.15146H8.81469Z" fill="#F9C0C0"/>
<path d="M8.81167 1.15146C7.62051 1.15146 6.57761 1.78373 6.01294 2.72348V7.51188C7.79179 7.49929 9.23503 6.07771 9.23503 4.33184V1.15146H8.81167Z" fill="#FCACAB"/>
</svg>
