<svg width="30" height="30" viewBox="0 0 30 30" fill="none" xmlns="http://www.w3.org/2000/svg">
<path d="M0 6.17651V27.353H8.28929C10.2643 27.353 11.9069 28.486 12.7631 30H15L15.5882 29.1177L15 28.2353L3.52941 6.17651H0Z" fill="#97DE3D"/>
<path d="M1.76465 7.94116V25.5882H8.28924C10.4263 25.5882 12.4057 26.5785 13.687 28.2352C14.1462 28.2352 14.5408 28.2352 14.9999 28.2353V25.5882L3.52935 7.94116H1.76465Z" fill="#E3F5FF"/>
<path d="M21.7108 27.353H30V17.6471V6.17651H26.4706L15 28.2353V30H17.2369C17.3421 29.8999 18.6044 27.353 21.7108 27.353Z" fill="#59C36A"/>
<path d="M21.7108 25.5882H28.2353V17.647V7.94116H26.4706L15 25.5882V28.2353H16.3129C17.5945 26.578 19.5743 25.5882 21.7108 25.5882Z" fill="#C5E6F0"/>
<path d="M14.9999 25.5881C14.9999 25.5881 14.4261 25.5881 14.1175 25.5881C14.1175 24.1286 12.9301 22.9411 11.4705 22.9411C10.5097 22.9411 4.49641 22.9411 3.5293 22.9411C3.5293 21.8631 3.5293 4.6073 3.5293 3.5293H7.94106L14.9999 21.1764L15.5881 22.9411L14.9999 25.5881Z" fill="#C5E6F0"/>
<path d="M10.5882 0C9.74675 0 8.78263 0 7.94116 0V19.4118H11.4706C13.4198 19.4118 15 20.9919 15 22.9412L15.8823 14.9999L15 8.82353C15 8.39653 15 4.84159 15 4.41177C15 1.97529 13.0249 0 10.5882 0Z" fill="#E3F5FF"/>
<path d="M18.5294 22.9411H26.4706C26.4706 21.8631 26.4706 4.6073 26.4706 3.5293C24.8072 3.5293 21.2631 3.5293 20.2941 3.5293C17.375 3.5293 15 5.90418 15 8.82341V17.2058V25.5881H15.8824C15.8824 24.1286 17.0697 22.9411 18.5294 22.9411Z" fill="#AED7E6"/>
<path d="M17.5852 11.4707H22.9515V13.2354H17.5852V11.4707Z" fill="#30446C"/>
<path d="M17.5852 15H22.9515V16.7647H17.5852V15Z" fill="#30446C"/>
<path d="M17.6108 18.5295H22.9771V20.2942H17.6108V18.5295Z" fill="#30446C"/>
</svg>
