<svg width="30" height="30" viewBox="0 0 30 30" fill="none" xmlns="http://www.w3.org/2000/svg">
<path d="M28.2421 24.0196C28.2421 26.3478 26.3479 28.2419 24.0198 28.2419C21.6916 28.2419 19.7974 26.3478 19.7974 24.0196V23.4042L20.504 24.1108L21.747 22.8679L18.9185 20.0396L16.0901 22.8679L17.333 24.1108L18.0396 23.4042V24.0196C18.0396 27.317 20.7224 29.9997 24.0198 29.9997C27.3172 29.9997 29.9999 27.317 29.9999 24.0196H28.2421Z" fill="#D261E8"/>
<path d="M2.15682 16.4829V18.4707C2.15682 20.0838 3.46912 21.3961 5.08223 21.3961C6.69534 21.3961 8.00764 20.0838 8.00764 18.4707H6.24986C6.24986 19.1145 5.72604 19.6383 5.08223 19.6383C4.43841 19.6383 3.9146 19.1146 3.9146 18.4707V16.4829L4.62122 17.1895L5.86415 15.9466L3.03571 13.1182L0.207275 15.9467L1.4502 17.1896L2.15682 16.4829Z" fill="#E991F5"/>
<path d="M24.9178 21.3961C26.5309 21.3961 27.8432 20.0838 27.8432 18.4707V16.4829L28.5499 17.1895L29.7928 15.9466L26.9644 13.1182L24.1359 15.9466L25.3788 17.1895L26.0855 16.4829V18.4707C26.0855 19.1145 25.5617 19.6383 24.9178 19.6383C24.274 19.6383 23.7502 19.1146 23.7502 18.4707H21.9924C21.9924 20.0838 23.3047 21.3961 24.9178 21.3961Z" fill="#D261E8"/>
<path d="M8.25299 22.8679L9.49591 24.1108L10.2025 23.4042V24.0196C10.2025 26.3478 8.30836 28.2419 5.98018 28.2419C3.65201 28.2419 1.75777 26.3478 1.75777 24.0196H0C0 27.317 2.68272 29.9997 5.98013 29.9997C9.27754 29.9997 11.9603 27.317 11.9603 24.0196V23.4042L12.6669 24.1108L13.9098 22.8679L11.0814 20.0396L8.25299 22.8679Z" fill="#E991F5"/>
<path d="M14.9982 0C13.8929 0 12.9606 0.8234 12.8241 1.92031L11.4177 13.2183C11.3227 13.2066 11.2262 13.1998 11.128 13.1998C9.7797 13.1998 8.69708 14.3375 8.78778 15.7053C8.86501 16.8704 9.81204 17.813 10.9774 17.8863C11.4185 17.914 11.8349 17.8189 12.1971 17.6331C12.7834 18.5624 13.8184 19.1804 14.9983 19.1811L16.1701 8.02729L14.9982 0Z" fill="#FFCDBE"/>
<path d="M18.8683 13.1998C18.7701 13.1998 18.6736 13.2066 18.5786 13.2183L17.1722 1.92031C17.0357 0.8234 16.1034 0 14.998 0V19.181H15C16.1801 19.181 17.2153 18.5634 17.8022 17.6344C18.1642 17.8195 18.5801 17.9141 19.0207 17.8861C20.1854 17.8119 21.1314 16.8696 21.2086 15.7051C21.2991 14.3375 20.2166 13.1998 18.8683 13.1998Z" fill="#FFBEAA"/>
</svg>
