<svg width="22" height="30" viewBox="0 0 22 30" fill="none" xmlns="http://www.w3.org/2000/svg">
<path d="M21.8332 29.9999H0V3.4231H4.71088L10.9166 4.00903L17.1223 3.4231H21.8332V29.9999Z" fill="#F5F2F1"/>
<path d="M21.8331 29.9999H10.9165V4.00903L17.1222 3.4231H21.8331V29.9999Z" fill="#DBD1CC"/>
<path d="M16.1556 19.5177L10.9167 25.9285C7.37607 25.9285 4.50586 23.0583 4.50586 19.5177C4.50586 15.9771 7.37607 13.1069 10.9167 13.1069L16.1556 19.5177Z" fill="#69B1E9"/>
<path d="M10.9165 13.1069C14.4571 13.1069 17.3273 15.9771 17.3273 19.5177C17.3273 23.0583 14.4571 25.9285 10.9165 25.9285V13.1069Z" fill="#2681FF"/>
<path d="M9.81912 22.9159L7.08203 20.1787L8.32498 18.9358L9.81912 20.43L10.9165 19.3326L11.8052 20.0683L10.9165 21.8185L9.81912 22.9159Z" fill="#F5F2F1"/>
<path d="M10.9165 21.8187L14.751 17.9842L13.508 16.7412L10.9165 19.3328V21.8187Z" fill="#DBD1CC"/>
<path d="M10.9164 8.98342L12.186 3.42328L10.9164 0C9.02583 0 7.49319 1.53264 7.49319 3.42322H4.71069V8.98336H10.9164V8.98342Z" fill="#DBD1CC"/>
<path d="M17.1222 8.98342V3.42322H14.3398C14.3397 1.53264 12.8071 0 10.9165 0V8.98342H17.1222Z" fill="#B3A9A9"/>
</svg>
