<svg width="25" height="30" viewBox="0 0 25 30" fill="none" xmlns="http://www.w3.org/2000/svg">
<path d="M14.149 0.878906H11.4712V3.57441H5.93136V0.878906H3.25355C1.94204 0.878906 0.878906 1.94204 0.878906 3.25349V26.7466C0.878906 28.058 1.94204 29.1211 3.25349 29.1211H14.1489C15.4604 29.1211 16.5235 28.058 16.5235 26.7466V3.25349C16.5236 1.94204 15.4605 0.878906 14.149 0.878906Z" fill="#99E5FF"/>
<path d="M14.1489 0.878906H11.4711V3.57441H8.70117V29.1211H14.1489C15.4604 29.1211 16.5235 28.058 16.5235 26.7466V3.25349C16.5235 1.94204 15.4604 0.878906 14.1489 0.878906Z" fill="#4BD0FF"/>
<path d="M14.149 0H3.2535C1.45952 0 0 1.45952 0 3.2535V26.7465C0 28.5405 1.45952 30 3.2535 30H14.149C15.943 30 17.4025 28.5405 17.4025 26.7465V3.2535C17.4025 1.45952 15.943 0 14.149 0ZM15.6447 26.7466C15.6447 27.5713 14.9737 28.2422 14.149 28.2422H3.2535C2.42878 28.2422 1.75782 27.5713 1.75782 26.7466V3.2535C1.75782 2.42878 2.42878 1.75782 3.2535 1.75782H5.05245V4.45333H12.3501V1.75782H14.149C14.9737 1.75782 15.6447 2.42878 15.6447 3.2535V26.7466Z" fill="#4D628C"/>
<path d="M14.1489 0H8.70117V4.45333H12.35V1.75782H14.149C14.9737 1.75782 15.6446 2.42878 15.6446 3.2535V26.7465C15.6446 27.5712 14.9737 28.2422 14.149 28.2422H8.70123V30H14.149C15.9429 30 17.4025 28.5405 17.4025 26.7465V3.2535C17.4024 1.45952 15.9429 0 14.1489 0Z" fill="#2D426B"/>
<path d="M16.5184 7.18286C12.208 7.18286 8.70117 10.6897 8.70117 15.0001C8.70117 16.1403 8.94024 17.2364 9.41209 18.2614V22.1064H13.2571C14.2821 22.5782 15.3781 22.8173 16.5184 22.8173C20.8287 22.8173 24.3355 19.3105 24.3355 15.0001C24.3355 10.6897 20.8287 7.18286 16.5184 7.18286Z" fill="#FFF5F5"/>
<path d="M16.5186 7.18286V22.8172C20.8289 22.8172 24.3357 19.3104 24.3357 15C24.3357 10.6896 20.8289 7.18286 16.5186 7.18286Z" fill="#ECE6F2"/>
<path d="M16.521 10.5474C14.0658 10.5474 12.0684 12.5448 12.0684 15C12.0684 17.4551 14.0658 19.4526 16.521 19.4526C18.9761 19.4526 20.9736 17.4551 20.9736 15C20.9736 12.5448 18.9761 10.5474 16.521 10.5474ZM16.521 12.3052C16.9438 12.3052 17.3442 12.4031 17.7007 12.5774L14.0984 16.1797C13.9241 15.8232 13.8262 15.4228 13.8262 15C13.8262 13.5141 15.0351 12.3052 16.521 12.3052ZM16.521 17.6948C16.0982 17.6948 15.6978 17.5969 15.3413 17.4226L18.9436 13.8203C19.1179 14.1768 19.2158 14.5772 19.2158 15C19.2158 16.4859 18.0069 17.6948 16.521 17.6948Z" fill="#FF405C"/>
<path d="M16.5211 10.5474C16.5203 10.5474 16.5194 10.5474 16.5186 10.5474V12.3052H16.5211C16.9439 12.3052 17.3443 12.4031 17.7007 12.5774L16.5186 13.7596V16.2455L18.9437 13.8204C19.118 14.1769 19.2159 14.5772 19.2159 15C19.2159 16.4859 18.007 17.6948 16.5211 17.6948C16.5203 17.6948 16.5194 17.6948 16.5186 17.6948V19.4527H16.5211C18.9763 19.4527 20.9738 17.4552 20.9738 15C20.9738 12.5449 18.9762 10.5474 16.5211 10.5474Z" fill="#E20059"/>
</svg>
