<svg width="29" height="30" viewBox="0 0 29 30" fill="none" xmlns="http://www.w3.org/2000/svg">
<path d="M28.7425 11.7586V30.0001H0V11.7586L14.3713 0.488037L28.7425 11.7586Z" fill="#FF9A00"/>
<path d="M28.7426 11.7586V30.0001H14.3814C14.3748 29.9621 14.3713 29.9227 14.3713 29.8829V0.488037L28.7426 11.7586Z" fill="#E67500"/>
<path d="M4.33398 0H24.4083V24.3562H4.33398V0Z" fill="#E1E4FB"/>
<path d="M14.3713 0H24.4085V24.3562H14.3713V0Z" fill="#C5C9F7"/>
<path d="M28.7425 11.7649V29.9999H0V11.7649L14.3713 23.0355L28.7425 11.7649Z" fill="#FFB74F"/>
<path d="M28.7426 11.7649V29.9999H14.3814C14.3748 29.9619 14.3713 29.9225 14.3713 29.8827V23.0355L28.7426 11.7649Z" fill="#FF9A00"/>
<path d="M14.3713 3.80859C10.6882 3.80859 7.69165 6.80511 7.69165 10.4883C7.69165 14.1714 10.6882 17.168 14.3713 17.168C15.0632 17.168 15.7453 17.0625 16.3992 16.8544L15.8662 15.1792C15.3851 15.3323 14.8822 15.4102 14.3713 15.4102C11.6573 15.4102 9.44946 13.2024 9.44946 10.4883C9.44946 7.7742 11.6573 5.56641 14.3713 5.56641C17.0854 5.56641 19.2932 7.7742 19.2932 10.4883V12.6439C19.2932 13.1701 18.865 13.5983 18.3388 13.5983C17.8126 13.5983 17.3843 13.1701 17.3843 12.6439V7.60185H15.808C15.3674 7.38396 14.8795 7.26746 14.3784 7.26746H14.3713C12.5984 7.27158 11.1581 8.71468 11.1581 10.4883C11.1581 12.2619 12.5984 13.705 14.3713 13.7091H14.3784C14.8566 13.7091 15.3178 13.6054 15.7371 13.4097C16.0687 14.5335 17.1095 15.3561 18.3388 15.3561C19.8341 15.3561 21.051 14.1392 21.051 12.6439V10.4883C21.051 6.80511 18.0545 3.80859 14.3713 3.80859ZM15.6265 11.2518C15.5684 11.3461 15.5004 11.434 15.4219 11.5137C15.1447 11.7954 14.7739 11.9513 14.3784 11.9513H14.3713C13.568 11.9472 12.9159 11.2928 12.9159 10.4883C12.9159 9.68376 13.568 9.02939 14.3713 9.02527H14.3784C14.7387 9.02527 15.0845 9.1571 15.3523 9.39674C15.4601 9.49287 15.5521 9.60297 15.6265 9.72427V11.2518Z" fill="#6D76E7"/>
<path d="M15.8662 15.1792L16.3992 16.8544C15.7453 17.0624 15.0632 17.168 14.3713 17.168V15.4101C14.8822 15.4101 15.3851 15.3323 15.8662 15.1792Z" fill="#3A4DE3"/>
<path d="M21.051 10.4883V12.6439C21.051 14.1392 19.8341 15.3561 18.3388 15.3561C17.1095 15.3561 16.0687 14.5335 15.7371 13.4097C15.3178 13.6054 14.8566 13.7091 14.3784 13.7091H14.3713V11.9513H14.3784C14.7739 11.9513 15.1447 11.7954 15.4219 11.5137C15.5004 11.434 15.5684 11.3461 15.6265 11.2518V9.72427C15.5521 9.60297 15.4601 9.49287 15.3523 9.39674C15.0845 9.1571 14.7387 9.02527 14.3784 9.02527H14.3713V7.26746H14.3784C14.8795 7.26746 15.3674 7.38396 15.808 7.60185H17.3843V12.6439C17.3843 13.1701 17.8126 13.5983 18.3388 13.5983C18.865 13.5983 19.2932 13.1701 19.2932 12.6439V10.4883C19.2932 7.7742 17.0854 5.56641 14.3713 5.56641V3.80859C18.0545 3.80859 21.051 6.80511 21.051 10.4883Z" fill="#3A4DE3"/>
</svg>
