<svg width="30" height="30" viewBox="0 0 30 30" fill="none" xmlns="http://www.w3.org/2000/svg">
<path d="M0 7.05879V30H15L16.7647 18.9706L15 7.05879L7.76471 5.88232L0 7.05879Z" fill="#FFF1F1"/>
<path d="M30 7.05891L21.7059 5.35303L15 7.05891V30.0001H30V7.05891Z" fill="#F0E4F0"/>
<path d="M14.1177 0V2.64706L14.5589 3.08824L15 2.64706L15.4412 1.17647L15 0H14.1177Z" fill="#6680FF"/>
<path d="M4.41165 3.25488L3.5293 2.64706V0H5.294V2.64706L4.41165 3.25488Z" fill="#6680FF"/>
<path d="M25.5882 3.41176L24.7058 2.64706V0H26.4705V2.64706L25.5882 3.41176Z" fill="#665CFF"/>
<path d="M20.4413 3.25488L19.4119 2.64706V0H21.1766V2.64706L20.4413 3.25488Z" fill="#665CFF"/>
<path d="M9.70584 3.25488L8.82349 2.64706V0H10.5882V2.64706L9.70584 3.25488Z" fill="#6680FF"/>
<path d="M15.8824 0H15V2.64706L15.4412 3L15.8824 2.64706V0Z" fill="#665CFF"/>
<path d="M0 2.64697V7.05874H15L15.5294 4.96068L15 2.64697H0Z" fill="#80AAFF"/>
<path d="M15 2.64697H30V7.05874H15V2.64697Z" fill="#6680FF"/>
<path d="M4.41187 15V20.2941H7.94128L8.23539 17.5L7.94128 15H4.41187Z" fill="#99EEFF"/>
<path d="M11.4706 13.2354H7.94116V15.0001V20.2942V22.0589H11.4706V18.5295L11.7647 17.6471L11.4706 16.7648V13.2354Z" fill="#66CCFF"/>
<path d="M11.4707 16.7646V18.5294H15.0001L15.3531 17.647L15.0001 16.7646H11.4707Z" fill="#543F87"/>
<path d="M15 16.7646V18.5294H18.5294L18.9412 17.5294L18.5294 16.7646H15Z" fill="#403069"/>
<path d="M22.0587 13.2354H18.5293V16.7648V18.5295V22.0589H22.0587V20.2942L22.4116 17.6471L22.0587 15.0001V13.2354Z" fill="#66CCFF"/>
<path d="M22.0588 15H25.5882V20.2941H22.0588V15Z" fill="#36B0F7"/>
</svg>
