<svg width="35" height="30" viewBox="0 0 35 30" fill="none" xmlns="http://www.w3.org/2000/svg">
<path d="M15.5044 2.66059C13.7891 0.9449 11.5083 0 9.08235 0C4.06378 0 0 4.06223 0 9.08248C0 11.5082 0.944766 13.7889 2.66032 15.5044L2.79198 15.6364L17.1555 20.046L17.8283 10.2261L17.1555 4.31176L15.5044 2.66059Z" fill="#FF8080"/>
<path d="M25.2287 0C22.8027 0 20.522 0.9449 18.8068 2.66052L17.1555 4.31169V20.046L31.5512 15.604L31.6507 15.5045C33.3663 13.789 34.3111 11.5083 34.3111 9.08255C34.3111 4.06411 30.249 0 25.2287 0Z" fill="#FF3377"/>
<path d="M14.8795 14.9994C12.3558 11.3864 7.19398 10.9343 4.08701 14.0413C3.63296 14.4965 3.50385 14.7149 2.79126 15.6351L2.79193 15.6364L13.1189 25.9634L15.4904 19.4997L14.8795 14.9994Z" fill="#9580FF"/>
<path d="M30.9754 14.928C29.6501 13.0765 27.5053 11.9725 25.2286 11.9725C22.8562 11.9725 20.7238 13.1374 19.4225 15.0123L18.8616 19.5194L21.192 25.9634L31.5513 15.6041L30.9754 14.928Z" fill="#FFBE40"/>
<path d="M9.08232 13.489C11.033 13.489 12.6143 11.9076 12.6143 9.95695C12.6143 8.00627 11.033 6.42493 9.08232 6.42493C7.13163 6.42493 5.55029 8.00627 5.55029 9.95695C5.55029 11.9076 7.13163 13.489 9.08232 13.489Z" fill="#FFD8B4"/>
<path d="M25.2288 13.489C27.1795 13.489 28.7608 11.9076 28.7608 9.95695C28.7608 8.00627 27.1795 6.42493 25.2288 6.42493C23.2781 6.42493 21.6968 8.00627 21.6968 9.95695C21.6968 11.9076 23.2781 13.489 25.2288 13.489Z" fill="#FFC2A6"/>
<path d="M15.363 19.458C14.0345 20.1195 13.1189 21.4912 13.1189 23.0733V25.9635L17.1555 30.0001L17.8619 24.556L17.1555 20.046L15.363 19.458Z" fill="#7ADFE3"/>
<path d="M18.948 19.458L17.1555 20.046V30.0001L21.1921 25.9635V23.0733C21.1921 21.4912 20.2765 20.1195 18.948 19.458Z" fill="#55B3DC"/>
<path d="M14.1282 17.0185C14.1282 18.6905 15.4836 20.0459 17.1556 20.0459L17.862 17.2901L17.1556 13.991C15.4836 13.991 14.1282 15.3464 14.1282 17.0185Z" fill="#FFD8B4"/>
<path d="M17.1555 13.991V20.0459C18.8275 20.0459 20.183 18.6905 20.183 17.0185C20.183 15.3464 18.8275 13.991 17.1555 13.991Z" fill="#FFC2A6"/>
</svg>
