<svg width="30" height="30" viewBox="0 0 30 30" fill="none" xmlns="http://www.w3.org/2000/svg">
<path d="M7.38232 20.0425H9.14014V23.5581H7.38232V20.0425Z" fill="#A93619"/>
<path d="M20.8599 20.0425H22.6177V23.5581H20.8599V20.0425Z" fill="#8B2613"/>
<path d="M14.4141 20.0425H15.8789V23.5581H14.4141V20.0425Z" fill="#8B2613"/>
<path d="M14.1211 20.0425H15V23.5581H14.1211V20.0425Z" fill="#A93619"/>
<path d="M30.0001 22.6792H17.8372V26.3396L22.2713 30H30.0001V22.6792Z" fill="#5A5E30"/>
<path d="M0 22.6792V30H7.72881L12.1629 26.3396V22.6792H0Z" fill="#707741"/>
<path d="M15 22.6792L12.6562 26.3396L15 30H22.2712L17.8371 22.6792H15Z" fill="#EB7330"/>
<path d="M12.1629 22.6792L7.72876 30H15V22.6792H12.1629Z" fill="#F9963B"/>
<path d="M16.5223 14.3087L8.26113 0L0 14.3087H1.90893L0 17.6151H1.90893L0 20.9214H6.73881L16.5223 14.3087Z" fill="#8A8A47"/>
<path d="M28.0912 14.3087H30.0001L21.739 0L13.4778 14.3087L23.2612 20.9214H30.0001L28.0912 17.6151H30.0001L28.0912 14.3087Z" fill="#5A5E30"/>
<path d="M21.3522 14.3087H23.2611L15 0L9.72656 10.4607L15 20.9214H23.2611L21.3522 17.6151H23.2611L21.3522 14.3087Z" fill="#8A8A47"/>
<path d="M6.73877 14.3087H8.6477L6.73877 17.6151H8.6477L6.73877 20.9214H15V0L6.73877 14.3087Z" fill="#A59D4D"/>
</svg>
