<svg width="23" height="30" viewBox="0 0 23 30" fill="none" xmlns="http://www.w3.org/2000/svg">
<path d="M21.3241 14.3092V30H13.125L11.25 29.1211L9.37505 30H1.17603V14.3092H21.3241Z" fill="#11D16E"/>
<path d="M21.324 14.3092V30H13.125L11.25 29.1211V14.3092H21.324Z" fill="#0CA680"/>
<path d="M16.875 8.4375C16.875 9.99082 15.6158 11.25 14.0625 11.25L11.25 12.0703L8.4375 11.25C6.93012 11.2511 5.62529 10.0153 5.625 8.4375C5.62395 6.93012 6.85969 5.62529 8.4375 5.625C9.99082 5.625 11.25 6.88418 11.25 8.4375C11.25 6.88418 12.5092 5.625 14.0625 5.625C15.5699 5.62395 16.8747 6.85969 16.875 8.4375Z" fill="#F1475D"/>
<path d="M16.875 8.4375C16.875 9.99082 15.6158 11.25 14.0625 11.25L11.25 12.0703V8.4375C11.25 6.88418 12.5092 5.625 14.0625 5.625C15.5699 5.62395 16.8747 6.85969 16.875 8.4375Z" fill="#DE1F55"/>
<path d="M9.375 14.3092H13.125V30H9.375V14.3092Z" fill="#F1475D"/>
<path d="M11.25 14.3092H13.125V30H11.25V14.3092Z" fill="#DE1F55"/>
<path d="M22.5 11.25V15H13.1338L11.25 14.3092L9.375 15H0V11.25H9.375L11.25 12.0703L13.125 11.25H22.5Z" fill="#FFE54A"/>
<path d="M22.5 11.25V15H13.1338L11.25 14.3092V12.0703L13.125 11.25H22.5Z" fill="#F4CC03"/>
<path d="M4.56787 1.86804L6.10947 1.02429L7.52275 3.60647L5.98115 4.45022L4.56787 1.86804Z" fill="#633461"/>
<path d="M14.9751 3.61487L16.3884 1.03269L17.93 1.87644L16.5167 4.45862L14.9751 3.61487Z" fill="#462347"/>
<path d="M10.3711 0H12.1289V2.175H10.3711V0Z" fill="#633461"/>
<path d="M11.25 0H12.1289V2.175H11.25V0Z" fill="#462347"/>
<path d="M19.7458 5.31213L21.2838 3.7742L22.5266 5.01698L20.9886 6.55491L19.7458 5.31213Z" fill="#462347"/>
<path d="M0.072998 5.01489L1.31577 3.77212L2.8537 5.31005L1.61093 6.55282L0.072998 5.01489Z" fill="#633461"/>
<path d="M9.375 11.25H13.125V15H9.375V11.25Z" fill="#FC6F6A"/>
<path d="M11.25 11.25H13.125V15H11.25V11.25Z" fill="#F1475D"/>
</svg>
