<svg width="30" height="30" viewBox="0 0 30 30" fill="none" xmlns="http://www.w3.org/2000/svg">
<path d="M14.5642 1.48652C14.3655 0.486561 13.3937 -0.163004 12.3937 0.0357789C11.3937 0.234562 10.7442 1.2063 10.9429 2.20625L11.4106 4.55985C11.2118 3.56001 10.2401 2.91062 9.24022 3.10934C8.24021 3.30807 7.5907 4.27986 7.78942 5.27982L10.0703 16.7562L13.2058 21.2054L18.4025 20.8L18.6843 11.5214L15.1159 4.26279L14.5642 1.48652Z" fill="#FFBDA9"/>
<path d="M20.4878 2.88149C19.4878 3.08021 18.8383 4.05201 19.037 5.05196L18.7371 3.54308C18.5384 2.54306 17.5666 1.89356 16.5666 2.09228C15.5666 2.29101 14.9171 3.2628 15.1158 4.26276L20.0211 28.9443L25.6945 27.8168L25.2057 25.3576L25.768 19.9789L22.6583 4.33228C22.4595 3.33233 21.4877 2.68276 20.4878 2.88149Z" fill="#FFB4A2"/>
<path d="M17.866 20.1724C16.5819 18.6702 14.5866 17.9787 12.6484 18.3639L9.13975 16.1368C7.34319 14.9448 4.89707 15.4861 3.77901 17.3285L3.77783 17.3304L13.4773 23.7973L14.71 30L20.0212 28.9444L18.4025 20.8L17.866 20.1724Z" fill="#FFCCBD"/>
<path d="M28.9972 10.3269L27.5761 9.28837C28.1767 8.46649 28.3494 6.9349 28.0157 5.38635C27.6822 3.83775 26.8945 2.51298 26.0088 2.01133L26.8764 0.479736C28.1994 1.22916 29.2953 2.96728 29.7365 5.01577C30.1777 7.06415 29.8944 9.09921 28.9972 10.3269Z" fill="#72BBFF"/>
<path d="M1.84097 12.9494C0.705421 11.9383 0 10.0084 0 7.91298C0 5.81755 0.705421 3.88769 1.84097 2.87646L3.01155 4.19097C2.25139 4.86793 1.76018 6.32888 1.76018 7.91298C1.76018 9.49702 2.25139 10.958 3.01155 11.6349L1.84097 12.9494Z" fill="#72BBFF"/>
</svg>
