<svg width="30" height="30" viewBox="0 0 30 30" fill="none" xmlns="http://www.w3.org/2000/svg">
<path d="M30 15C30 19.0066 28.4397 22.7737 25.6066 25.6066C22.7737 28.4397 19.0066 30 15 30C10.9934 30 7.22626 28.4397 4.39339 25.6066C1.56029 22.7737 0 19.0066 0 15C0 10.9934 1.56029 7.22626 4.39339 4.39339C7.22626 1.56029 10.9934 0 15 0C19.0066 0 22.7737 1.56029 25.6066 4.39339C28.4397 7.22626 30 10.9934 30 15Z" fill="#FFE171"/>
<path d="M30 15C30 19.0066 28.4397 22.7737 25.6066 25.6066C22.7737 28.4397 19.0066 30 15 30V0C19.0066 0 22.7737 1.56029 25.6066 4.39339C28.4397 7.22626 30 10.9934 30 15Z" fill="#FFD300"/>
<path d="M13.3319 11.1523H11.5741C11.5741 10.3231 10.8994 9.64832 10.0701 9.64832C9.24091 9.64832 8.56616 10.3231 8.56616 11.1523H6.80835C6.80835 9.35374 8.27159 7.8905 10.0701 7.8905C11.8687 7.8905 13.3319 9.35397 13.3319 11.1523Z" fill="#B26D3C"/>
<path d="M23.1916 11.1523H21.4337C21.4337 10.3231 20.759 9.64832 19.9298 9.64832C19.1005 9.64832 18.4258 10.3231 18.4258 11.1523H16.668C16.668 9.35374 18.1312 7.8905 19.9298 7.8905C21.7283 7.8905 23.1916 9.35397 23.1916 11.1523Z" fill="#7A3D06"/>
<path d="M19.9298 15.8033C19.9298 15.8033 24.4745 17.7589 24.1928 18.6628C22.9721 22.5789 19.3128 25.4297 15 25.4297C10.6977 25.4297 7.04563 22.5929 5.81607 18.6916C5.5286 17.7793 10.0701 15.8033 10.0701 15.8033H19.9298Z" fill="#F95858"/>
<path d="M19.9299 15.8033C19.9299 15.8033 24.4746 17.7589 24.1928 18.6628C22.9722 22.5789 19.3128 25.4297 15 25.4297V15.8033H19.9299Z" fill="#EA1B5F"/>
<path d="M24.6264 14.9244V15.8033C24.6264 16.8093 24.4712 17.7791 24.1835 18.6914H5.81667C5.52896 17.7791 5.37378 16.8093 5.37378 15.8033V14.9244H24.6264Z" fill="#DCF3FF"/>
<path d="M24.6263 14.9244V15.8033C24.6263 16.8093 24.4711 17.7791 24.1834 18.6914H15V14.9244H24.6263Z" fill="#B0E2FA"/>
</svg>
