<svg width="30" height="30" viewBox="0 0 30 30" fill="none" xmlns="http://www.w3.org/2000/svg">
<path d="M21.0862 24.0351L15.0001 28.6915L8.91455 24.0351C10.6114 22.7108 11.4657 20.3712 11.0392 18.2144L15.0001 15.5776L18.961 18.2144C18.5351 20.3712 19.3888 22.7108 21.0862 24.0351Z" fill="#4A696F"/>
<path d="M21.0861 24.0351L15 28.6915V15.5776L18.9609 18.2144C18.535 20.3712 19.3887 22.7108 21.0861 24.0351Z" fill="#384949"/>
<path d="M23.789 20.2147C18.9474 20.4995 15.1546 15.5583 15 12.7528C14.8482 15.5026 11.0994 20.5019 6.2109 20.2147C5.71871 20.2147 5.32906 19.8011 5.3566 19.3112C5.62262 14.6026 7.97105 12.9157 9.88004 11.5446C11.1222 10.6522 12.1031 9.94795 12.317 8.55518H17.683C17.8968 9.94795 18.8777 10.6522 20.1199 11.5446C22.0289 12.9157 24.3773 14.6026 24.6433 19.3112C24.6709 19.8011 24.2806 20.2147 23.789 20.2147Z" fill="#4A696F"/>
<path d="M23.7891 20.2147C18.9475 20.4995 15.1547 15.5583 15 12.7528V8.55518H17.683C17.8969 9.94795 18.8777 10.6522 20.1199 11.5446C22.0289 12.9157 24.3773 14.6026 24.6434 19.3112C24.6709 19.8011 24.2807 20.2147 23.7891 20.2147Z" fill="#FF8FB8"/>
<path d="M23.7891 20.2147C18.9475 20.4995 15.1547 15.5583 15 12.7528V8.55518H17.683C17.8969 9.94795 18.8777 10.6522 20.1199 11.5446C22.0289 12.9157 24.3773 14.6026 24.6434 19.3112C24.6709 19.8011 24.2807 20.2147 23.7891 20.2147Z" fill="#384949"/>
<path d="M24.668 19.336V21.0938H23.8143C20.008 21.31 16.8814 18.9305 15 15.5778C13.1332 18.9041 10.0184 21.3077 6.18574 21.0938H5.33203V19.336L6.2625 19.3377C10.5896 19.5926 13.9494 15.0838 14.1193 12.7577C14.1117 12.5883 14.1129 12.4208 14.1229 12.2532H15.8771C15.8871 12.4208 15.8883 12.5889 15.8807 12.7577C15.985 14.185 17.543 18.3622 23.7891 19.336H24.668Z" fill="#FFE1BA"/>
<path d="M24.668 19.336V21.0938H23.8143C20.008 21.31 16.8814 18.9305 15 15.5778V12.2532H15.8771C15.8871 12.4208 15.8883 12.5889 15.8807 12.7577C15.985 14.185 17.543 18.3622 23.7891 19.336H24.668Z" fill="#FFBFAB"/>
<path d="M15 0C12.5771 0 10.6055 1.97168 10.6055 4.39453C10.6055 6.71133 12.4271 10.5469 15 10.5469C17.5799 10.5469 19.3945 6.70898 19.3945 4.39453C19.3945 1.97168 17.4234 0 15 0Z" fill="#FFE1BA"/>
<path d="M19.3945 4.39453C19.3945 6.70898 17.5799 10.5469 15 10.5469V0C17.4234 0 19.3945 1.97168 19.3945 4.39453Z" fill="#FFBFAB"/>
<path d="M28.8855 20.6131L27.2594 19.9454C27.9115 18.3575 28.2421 16.6738 28.2421 14.9413C28.2421 10.1496 25.6359 5.72808 21.4404 3.40237L22.2927 1.86499C27.0467 4.50036 29.9999 9.51089 29.9999 14.9413C29.9999 16.904 29.625 18.8122 28.8855 20.6131Z" fill="#D3F3C2"/>
<path d="M1.11439 20.6131C0.374941 18.8122 0 16.904 0 14.9413C0 9.51089 2.95324 4.50036 7.70725 1.86499L8.55949 3.40237C4.36406 5.72808 1.75781 10.1496 1.75781 14.9413C1.75781 16.6738 2.08846 18.3575 2.74049 19.9454L1.11439 20.6131Z" fill="#EFFFCC"/>
<path d="M28.2997 23.0966C27.245 26.9655 26.1616 29.4194 22.1555 29.9913L15 28.7321L7.84458 29.9913C2.01392 29.1581 1.70923 23.1153 1.70044 23.0966C1.92192 23.1235 9.55024 21.2069 15 27.6926L15.0006 27.6932C20.4094 21.2801 28.1397 23.1159 28.2997 23.0966Z" fill="#FFE1BA"/>
<path d="M28.2996 23.0964C27.2449 26.9654 26.1615 29.4193 22.1555 29.9911L15 28.732V27.6925L15.0006 27.6931C20.4094 21.28 28.1396 23.1158 28.2996 23.0964Z" fill="#FFBFAB"/>
<path d="M0 28.2422H30V30H0V28.2422Z" fill="#9CDD05"/>
<path d="M15 28.2422H30V30H15V28.2422Z" fill="#66BB00"/>
</svg>
