<svg width="30" height="30" viewBox="0 0 30 30" fill="none" xmlns="http://www.w3.org/2000/svg">
<path d="M4.96434 22.3329H3.20652V23.9227H1.6167V25.6805H3.20652V27.2703H4.96434V25.6805H6.55416V23.9227H4.96434V22.3329Z" fill="#3CAAFF"/>
<path d="M6.55376 23.923V25.6808H4.96411V27.2705H4.08521V22.3328H4.96411V23.923H6.55376Z" fill="#0195FF"/>
<path d="M24.6001 2.52466H22.8423V4.11448H21.2524V5.87229H22.8423V7.46212H24.6001V5.87229H26.1898V4.11448H24.6001V2.52466Z" fill="#FF4948"/>
<path d="M26.1897 4.11477V5.87258H24.6001V7.46223H23.7212V2.52454H24.6001V4.11477H26.1897Z" fill="#FF2323"/>
<path d="M15.4395 7.29504H17.1973V9.05286H15.4395V7.29504Z" fill="#FF4948"/>
<path d="M1.46655 3.2356H3.22436V4.99341H1.46655V3.2356Z" fill="#3CAAFF"/>
<path d="M10.918 15.5455H12.6758V17.3033H10.918V15.5455Z" fill="#FF4948"/>
<path d="M2.34546 3.2356H3.22437V4.99341H2.34546V3.2356Z" fill="#0195FF"/>
<path d="M11.7969 15.5455H12.6758V17.3033H11.7969V15.5455Z" fill="#FF2323"/>
<path d="M16.3184 7.29504H17.1973V9.05286H16.3184V7.29504Z" fill="#FF2323"/>
<path d="M14.8887 0V4.7748L8.09355 6.47344V15.5455C8.09355 17.7768 6.27773 19.5926 4.04648 19.5926C1.81523 19.5926 0 17.7768 0 15.5455C0 13.3143 1.81523 11.499 4.04648 11.499C4.89551 11.499 5.68418 11.7621 6.33574 12.2103V2.13867L14.8887 0Z" fill="#3CAAFF"/>
<path d="M14.8887 0V4.7748L8.0936 6.47344V15.5455C8.0936 16.367 7.84751 17.1322 7.42505 17.7709V1.86621L14.8887 0Z" fill="#0195FF"/>
<path d="M29.9999 23.3145V23.3303C29.9999 24.4049 29.5839 25.4168 28.8262 26.1803C28.0651 26.9479 27.0503 27.3727 25.9698 27.3774H25.9528C24.8782 27.3774 23.8669 26.9608 23.1034 26.2037C22.3358 25.4426 21.911 24.4278 21.9063 23.3467C21.9022 22.2662 22.3188 21.2479 23.08 20.4809C23.8411 19.7133 24.8559 19.2885 25.937 19.2838C26.7649 19.2797 27.5577 19.5246 28.2286 19.9834L28.2046 14.0924L17.302 16.8651L17.3389 25.9371V25.9535C17.3389 28.1772 15.5348 29.9912 13.3089 30H13.2919C11.0682 30 9.25477 28.1953 9.24539 25.9699C9.2366 23.7381 11.0448 21.9158 13.2761 21.9065H13.2925C14.135 21.9065 14.919 22.1655 15.5677 22.6084L15.5272 12.5373L29.9413 8.8717L29.9999 23.3145Z" fill="#FF4948"/>
<path d="M30 23.3145V23.3303C30 24.4049 29.584 25.4168 28.8264 26.1803C28.0652 26.9479 27.0504 27.3727 25.9699 27.3774H25.9529C24.8783 27.3774 23.867 26.9608 23.1035 26.2037C22.3359 25.4426 21.9111 24.4277 21.9064 23.3467C21.9023 22.2662 22.3189 21.2479 23.0801 20.4809C23.8412 19.7133 24.8561 19.2885 25.9371 19.2838C26.765 19.2797 27.5578 19.5246 28.2287 19.9834L28.2047 14.0924L19.623 16.275V11.4955L30 8.85681V23.3145Z" fill="#FF2323"/>
</svg>
