<svg width="23" height="30" viewBox="0 0 23 30" fill="none" xmlns="http://www.w3.org/2000/svg">
<path d="M0 1.75122V24.5864L5.22979 30H22.7626V1.75122H0Z" fill="#FFF2B4"/>
<path d="M22.7626 1.75122H11.3813V29.9999H22.7626V1.75122Z" fill="#FFDF8E"/>
<path d="M0 24.5706V24.5864L5.22838 29.9986V24.5706H0Z" fill="#FDDA50"/>
<path d="M16.052 0H6.677V5.17148H16.052V0Z" fill="#0050C3"/>
<path d="M16.0519 0H11.3813V5.17148H16.0519V0Z" fill="#0040A0"/>
<path d="M5.66215 13.242L3.12012 10.7028L4.36236 9.45917L5.23107 10.3268L6.49939 7.96216L8.0485 8.79296L5.66215 13.242Z" fill="#FA502E"/>
<path d="M16.3747 8.21313H11.3813V9.97095H16.3747V8.21313Z" fill="#FABE3D"/>
<path d="M19.472 11.7252H11.3813V13.483H19.472V11.7252Z" fill="#FABE3D"/>
<path d="M5.66215 21.6699L3.12012 19.1307L4.36236 17.887L5.23107 18.7547L6.49939 16.39L8.0485 17.2209L5.66215 21.6699Z" fill="#FA502E"/>
<path d="M16.3747 16.6412H11.3813V18.399H16.3747V16.6412Z" fill="#FABE3D"/>
<path d="M19.472 20.1526H11.3813V21.9104H19.472V20.1526Z" fill="#FABE3D"/>
<path d="M16.3747 8.21313H11.3813V9.97095H16.3747V8.21313Z" fill="#FD982C"/>
<path d="M19.472 11.7252H11.3813V13.483H19.472V11.7252Z" fill="#FD982C"/>
<path d="M16.3747 16.6412H11.3813V18.399H16.3747V16.6412Z" fill="#FD982C"/>
<path d="M19.472 20.1527H11.3813V21.9105H19.472V20.1527Z" fill="#FD982C"/>
</svg>
