<svg width="30" height="30" viewBox="0 0 30 30" fill="none" xmlns="http://www.w3.org/2000/svg">
<path d="M27.6621 16.0956L29.877 19.4531H20.2734C14.9824 19.4531 10.6055 15.1288 10.6055 9.78516C10.6055 4.44135 14.9297 0 20.2734 0C25.6171 0 30 4.44135 30 9.78516C30 11.9824 29.1913 14.2676 27.6973 16.0254C27.6797 16.043 27.6797 16.0781 27.6621 16.0956Z" fill="#FF8FA9"/>
<path d="M27.6621 16.0956L29.877 19.4531H20.2734V0C25.6171 0 30 4.44135 30 9.78516C30 11.9824 29.1913 14.2676 27.6973 16.0254C27.6797 16.043 27.6797 16.0781 27.6621 16.0956Z" fill="#FF5E95"/>
<path d="M9.72656 10.6641C4.40033 10.6641 0 15.0058 0 20.332C0 22.6699 0.826113 24.8847 2.33795 26.6425L0.123047 30H9.72656C15.0528 30 19.3945 25.6581 19.3945 20.332C19.3945 15.0058 15.0528 10.6641 9.72656 10.6641Z" fill="#FFE470"/>
<path d="M19.3945 20.332C19.3945 25.6581 15.0528 30 9.72656 30V10.6641C15.0528 10.6641 19.3945 15.0058 19.3945 20.332Z" fill="#FDBF00"/>
<path d="M15.5273 22.3886C14.666 24.832 12.3281 26.4844 9.72656 26.4844C7.12506 26.4844 4.78711 24.832 3.92578 22.3886L5.57812 21.7909C6.21094 23.5487 7.86328 24.7265 9.72656 24.7265C11.5898 24.7265 13.2422 23.5487 13.875 21.7909L15.5273 22.3886Z" fill="#725D57"/>
<path d="M12.3633 17.6953H14.1211V19.4531H12.3633V17.6953Z" fill="#53433F"/>
<path d="M15.8789 8.90625H17.6367V10.6641H15.8789V8.90625Z" fill="#F7F0EB"/>
<path d="M19.3945 8.90625H21.1523V10.6641H19.3945V8.90625Z" fill="#F7F0EB"/>
<path d="M22.9102 8.90625H24.668V10.6641H22.9102V8.90625Z" fill="#EFE2DD"/>
<path d="M5.33203 17.6953H7.08984V19.4531H5.33203V17.6953Z" fill="#725D57"/>
<path d="M15.5273 22.3887C14.666 24.8321 12.3281 26.4844 9.72656 26.4844V24.7266C11.5898 24.7266 13.2422 23.5488 13.875 21.791L15.5273 22.3887Z" fill="#53433F"/>
<path d="M20.2734 8.90625H21.1523V10.6641H20.2734V8.90625Z" fill="#EFE2DD"/>
</svg>
