<svg width="31" height="30" viewBox="0 0 31 30" fill="none" xmlns="http://www.w3.org/2000/svg">
<path d="M28.5298 25.0113C28.5298 25.294 28.5059 25.5784 28.4568 25.8622C28.0424 28.2533 25.9675 30 23.5412 30H21.7687L15.2334 25.5179V11.2263H20.3885C20.3885 13.2305 21.343 15.4599 22.6023 16.9964L27.0687 21.4838C28.0118 22.4269 28.5298 23.6994 28.5298 25.0113Z" fill="#834520"/>
<path d="M15.2333 11.2263V25.5179L8.74353 30H6.93574C5.72257 30 4.59682 29.5634 3.72317 28.8275C2.84952 28.0922 2.22676 27.0575 2.02018 25.8622C1.74293 24.2634 2.26089 22.6305 3.4082 21.4838L7.94473 16.9102C8.56628 16.1443 9.10221 15.2209 9.48245 14.2401C9.86269 13.2599 10.0878 12.2215 10.0878 11.2263H15.2333Z" fill="#A05528"/>
<path d="M10.4198 19.3259L10.9755 23.0205L8.74361 25.8467C8.74361 25.8198 8.74487 25.793 8.74553 25.7662L0.279656 12.0036C-0.248607 11.1757 -0.00651154 10.0763 0.820734 9.54744C1.64858 9.01852 2.74858 9.26062 3.27684 10.0885L7.81666 16.7274C8.51552 17.7488 9.39517 18.6361 10.4198 19.3259Z" fill="#FFDECF"/>
<path d="M30.3289 12.0034L21.7686 25.899L19.6387 23.1633L20.2106 19.3258C21.2186 18.6405 22.0841 17.7615 22.7741 16.7534L27.3318 10.0884C27.8607 9.26052 28.96 9.01842 29.7879 9.54728C30.6151 10.0763 30.8578 11.1756 30.3289 12.0034Z" fill="#FFBEAA"/>
<path d="M15.2334 8.86707L16.431 15.6088L15.2334 30L13.2053 25.0192L13.4274 20.2922C13.4268 20.2737 13.4262 17.1365 13.4262 17.1365C11.3472 16.476 10.0879 14.5299 10.0879 12.2323V10.7575C10.0879 10.6743 10.0897 10.5916 10.0933 10.5102L12.9346 9.91138C12.9346 9.91138 14.1334 9.43293 15.2334 8.86707Z" fill="#FFDECF"/>
<path d="M20.3783 10.7575V12.2324C20.3783 14.4599 19.031 16.3569 17.0496 17.0725C17.0496 17.0725 17.049 20.2743 17.0484 20.2935L17.4292 25.0102L15.2334 30.0001V8.86713C15.7615 8.59527 16.2663 8.30365 16.6053 8.03479C17.128 8.44856 18.3328 9.58269 18.3328 9.58269L20.3729 10.5102C20.3765 10.5917 20.3783 10.6743 20.3783 10.7575Z" fill="#FFBEAA"/>
<path d="M15.2334 5.61194L16.431 8.06104L15.2334 10.0455C14.5106 10.3503 13.7298 10.5101 12.9346 10.5101H10.0933C10.1561 9.18799 10.7184 7.99577 11.5945 7.11853C12.5262 6.18739 13.8124 5.61194 15.2334 5.61194Z" fill="#A05528"/>
<path d="M20.3729 10.5101H20.2759C19.6094 10.5101 18.9532 10.3976 18.3328 10.1814C17.7124 9.96583 17.128 9.64607 16.6053 9.2323C16.1837 9.56643 15.722 9.83888 15.2334 10.0455V5.61194C17.9921 5.61194 20.2436 7.7826 20.3729 10.5101Z" fill="#834520"/>
<path d="M15.2331 30.0001H8.74365V25.8466L10.4198 19.3259C10.5386 19.4057 10.6593 19.4837 10.7826 19.5584C11.4559 19.9679 12.1733 20.2956 12.7425 20.2924H13.4274L15.2331 30.0001Z" fill="#FFB3E5"/>
<path d="M21.7685 25.8991V30.0001H15.2332L17.0484 20.2938H17.863C18.4303 20.3104 19.1457 19.9878 19.8177 19.579C19.9512 19.4978 20.0821 19.4135 20.2106 19.326L21.7685 25.8991Z" fill="#FF80D4"/>
<path d="M15.2334 0L15.8322 1.34731L15.2334 2.69461H14.3394V0H15.2334Z" fill="#FFBB33"/>
<path d="M15.2334 0H16.1358V2.69461H15.2334V0Z" fill="#FF9966"/>
<path d="M8.21948 2.31604L9.69793 1.29568L11.2284 3.5133L9.74999 4.53366L8.21948 2.31604Z" fill="#FFBB33"/>
<path d="M4.59253 6.96924L5.53025 5.4369L7.82876 6.84349L6.89103 8.37583L4.59253 6.96924Z" fill="#FFBB33"/>
<path d="M19.3235 3.50134L20.854 1.28373L22.3324 2.30409L20.8019 4.5217L19.3235 3.50134Z" fill="#FF9966"/>
<path d="M22.7324 6.84863L25.0309 5.44205L25.9686 6.97438L23.6701 8.38097L22.7324 6.84863Z" fill="#FF9966"/>
<path d="M15.2334 13.0107L15.8322 13.8101L15.2334 14.8083H15.2088C13.9962 14.8083 13.01 13.8221 13.01 12.6095H14.8064C14.8064 12.8317 14.9867 13.0119 15.2088 13.0119C15.2172 13.0119 15.225 13.0119 15.2334 13.0107Z" fill="#FFBEAA"/>
<path d="M17.4071 12.6095C17.4071 13.8137 16.434 14.7951 15.2334 14.8083V13.0107C15.4436 12.9987 15.6106 12.8233 15.6106 12.6095H17.4071Z" fill="#FFA68D"/>
</svg>
