<svg width="30" height="30" viewBox="0 0 30 30" fill="none" xmlns="http://www.w3.org/2000/svg">
<g clip-path="url(#clip0_149_522)">
<path d="M6.68578 3.34788L3.34283 0.00505066L0 3.34788L1.24267 4.59055L2.46412 3.36909V13.7822H4.22154V3.36903L5.44311 4.59055L6.68578 3.34788Z" fill="#4D4680"/>
<path d="M8.18518 21.5142H21.815V29.9965H8.18518V21.5142Z" fill="#8066FF"/>
<path d="M15 21.5142H21.8148V29.9965H15V21.5142Z" fill="#7733FF"/>
<path d="M8.18518 10.7588H21.815V19.2412H8.18518V10.7588Z" fill="#FF4D86"/>
<path d="M15 10.7588H21.8148V19.2412H15V10.7588Z" fill="#EB2277"/>
<path d="M8.18518 0.00350952H21.815V8.48589H8.18518V0.00350952Z" fill="#80FFD4"/>
<path d="M15 0.00350952H21.8148V8.48589H15V0.00350952Z" fill="#2EE6E6"/>
<path d="M28.7573 25.4097L27.5359 26.6311V16.2181H25.7785V26.6312L24.5569 25.4097L23.3142 26.6524L26.6572 29.9952L30 26.6524L28.7573 25.4097Z" fill="#4D4680"/>
<path d="M11.9343 3.36597H18.0657V5.12338H11.9343V3.36597Z" fill="#DDFFD2"/>
<path d="M11.9343 14.1213H18.0657V15.8787H11.9343V14.1213Z" fill="#FF819D"/>
<path d="M11.9343 24.8766H18.0657V26.634H11.9343V24.8766Z" fill="#AA99FF"/>
<path d="M15 3.36597H18.0657V5.12338H15V3.36597Z" fill="#80FFD4"/>
<path d="M15 14.1213H18.0657V15.8787H15V14.1213Z" fill="#FF4D86"/>
<path d="M15 24.8766H18.0657V26.634H15V24.8766Z" fill="#8066FF"/>
</g>
<defs>
<clipPath id="clip0_149_522">
<rect width="30" height="30" fill="white"/>
</clipPath>
</defs>
</svg>
