<svg width="29" height="30" viewBox="0 0 29 30" fill="none" xmlns="http://www.w3.org/2000/svg">
<path d="M20.2527 26.3138H7.89355V30H20.2527V26.3138Z" fill="#C8AD92"/>
<path d="M20.2535 26.3138H14.0742V30H20.2535V26.3138Z" fill="#BD9B7B"/>
<path d="M18.7645 4.69722C18.7645 7.28706 16.6682 9.38746 14.0795 9.39385H14.0678C11.4739 9.39385 9.37061 7.29116 9.37061 4.69722C9.37055 2.10334 11.4738 0 14.0678 0H14.0794C16.6681 0.0064453 18.7645 2.10738 18.7645 4.69722Z" fill="#FF3100"/>
<path d="M18.7643 4.69722C18.7643 7.28706 16.668 9.38746 14.0793 9.39385V0C16.668 0.0064453 18.7643 2.10738 18.7643 4.69722Z" fill="#CA1C00"/>
<path d="M10.0794 12.6159C10.0794 15.2058 7.98309 17.3062 5.39442 17.3126H5.38276C2.78882 17.3126 0.685547 15.2098 0.685547 12.6159C0.685547 10.022 2.78882 7.9187 5.38276 7.9187H5.39442C7.98309 7.92509 10.0794 10.0261 10.0794 12.6159Z" fill="#FF3100"/>
<path d="M10.0795 12.6159C10.0795 15.2058 7.9832 17.3062 5.39453 17.3126V7.9187C7.9832 7.92509 10.0795 10.0261 10.0795 12.6159Z" fill="#CA1C00"/>
<path d="M27.462 11.6845C27.462 14.2744 25.3657 16.3748 22.777 16.3812H22.7653C20.1714 16.3812 18.0681 14.2785 18.0681 11.6845C18.0681 9.09058 20.1714 6.9873 22.7653 6.9873H22.777C25.3657 6.99369 27.462 9.09462 27.462 11.6845Z" fill="#FF3100"/>
<path d="M27.4618 11.6846C27.4618 14.2744 25.3655 16.3748 22.7769 16.3812V6.9873C25.3655 6.99375 27.4618 9.09468 27.4618 11.6846Z" fill="#CA1C00"/>
<path d="M22.8111 6.72323C23.2762 7.6343 23.6093 8.53846 23.8008 9.4108C24.0578 10.5791 24.0631 11.6961 23.8156 12.7305C23.4012 14.4648 22.2791 16.0453 20.4793 17.4283C19.0079 18.559 17.5723 19.1591 17.5115 19.1845L17.3384 19.2563L16.3386 19.6703L15.6339 18.8491L15.5118 18.7065C15.4743 18.6624 14.5812 17.6154 13.8111 16.1071C13.3457 15.1955 13.0125 14.2914 12.821 13.419C12.5641 12.2507 12.5591 11.1342 12.8061 10.1002C13.2207 8.36502 14.3431 6.78498 16.1429 5.40194C17.6143 4.27126 19.0495 3.67067 19.1099 3.64565L20.2836 3.15991L21.11 4.12331C21.1475 4.16737 22.0406 5.21444 22.8111 6.72323Z" fill="#6BCD00"/>
<path d="M22.8113 6.72317C23.2764 7.63424 23.6096 8.5384 23.8011 9.41074C24.058 10.579 24.0633 11.6961 23.8159 12.7304C23.4014 14.4647 22.2793 16.0452 20.4796 17.4282C19.0082 18.5589 17.5726 19.159 17.5117 19.1844L17.3386 19.2563L16.3389 19.6703L20.2837 3.15991L21.1102 4.12331C21.1478 4.16731 22.0408 5.21438 22.8113 6.72317Z" fill="#5EAD00"/>
<path d="M19.6563 9.55499L17.3385 19.2563L16.3387 19.6702L15.634 18.8491L17.9518 9.14771L18.8044 9.35138L19.6563 9.55499Z" fill="#D4FE9A"/>
<path d="M19.6564 9.55505L17.3386 19.2564L16.3389 19.6703L18.8045 9.35144L19.6564 9.55505Z" fill="#B7FB4C"/>
<path d="M10.3281 3.4946C11.2746 3.88243 12.1166 4.35112 12.8303 4.8879C13.7866 5.60655 14.5187 6.45024 15.0051 7.39606C15.821 8.9816 16 10.9116 15.5364 13.1335C15.1573 14.95 14.4595 16.3408 14.43 16.3997L14.3455 16.567L13.857 17.5325L12.7873 17.369L12.6018 17.3404C12.5446 17.3314 11.1849 17.1193 9.61778 16.4773C8.67067 16.0893 7.82874 15.6206 7.11495 15.0838C6.1587 14.3652 5.42722 13.5216 4.94066 12.5764C4.12427 10.9901 3.94585 9.06024 4.40951 6.83837C4.78855 5.02185 5.48575 3.63089 5.51523 3.57265L6.08886 2.43933L7.34358 2.63134C7.40071 2.64025 8.76043 2.85242 10.3281 3.4946Z" fill="#6BCD00"/>
<path d="M10.3279 3.49454C11.2745 3.88237 12.1164 4.35106 12.8302 4.88784C13.7864 5.60649 14.5185 6.45018 15.0049 7.396C15.8209 8.98154 15.9999 10.9116 15.5362 13.1334C15.1571 14.9499 14.4594 16.3408 14.4298 16.3996L14.3453 16.567L13.8569 17.5325L6.08862 2.43921L7.34335 2.63122C7.40053 2.64019 8.76026 2.85235 10.3279 3.49454Z" fill="#5EAD00"/>
<path d="M9.78065 7.69849L14.3453 16.5671L13.8568 17.5326L12.7871 17.369L8.22241 8.50046L9.00188 8.09927L9.78065 7.69849Z" fill="#D4FE9A"/>
<path d="M9.78072 7.69849L14.3454 16.5671L13.8569 17.5326L9.00195 8.09927L9.78072 7.69849Z" fill="#B7FB4C"/>
<path d="M28.1483 13.6642V14.5403C28.1483 15.4398 28.0631 16.3311 27.8954 17.2044C27.7815 17.7984 27.6297 18.3836 27.4405 18.9566C27.0894 20.0208 26.6099 21.0441 26.0094 22.0026C24.6485 24.1743 22.7227 25.9353 20.4413 27.0947L20.2544 27.1899H7.8945L7.707 27.0947C5.42554 25.9353 3.4998 24.1743 2.1389 22.0026C1.53849 21.0442 1.0589 20.0208 0.70787 18.9566C0.518612 18.3836 0.366738 17.7984 0.25289 17.2044C0.0852538 16.3311 0 15.4398 0 14.5403V13.6642H28.1483Z" fill="#DFCDBD"/>
<path d="M28.1484 13.6642V14.5403C28.1484 15.4398 28.0632 16.3311 27.8955 17.2044C27.7816 17.7984 27.6297 18.3836 27.4405 18.9566C27.0895 20.0208 26.61 21.0441 26.0095 22.0026C24.6486 24.1743 22.7228 25.9353 20.4414 27.0947L20.2545 27.1899H14.0742V13.6642H28.1484Z" fill="#C8AD92"/>
<path d="M27.8955 17.2043C27.7816 17.7984 27.6297 18.3836 27.4405 18.9566H0.707909C0.518652 18.3836 0.366777 17.7984 0.25293 17.2043H27.8955Z" fill="#F0E7DF"/>
<path d="M27.8955 17.2043C27.7816 17.7984 27.6297 18.3836 27.4405 18.9566H14.0742V17.2043H27.8955Z" fill="#DFCDBD"/>
</svg>
