<svg width="30" height="30" viewBox="0 0 30 30" fill="none" xmlns="http://www.w3.org/2000/svg">
<g clip-path="url(#clip0_106_1729)">
<path d="M23.2031 1.17188C21.7493 1.17188 20.5664 2.35474 20.5664 3.80859C20.5664 6.8779 18.0693 9.375 15 9.375L13.8281 14.9707L15 20.5664H15.8789V30H21.1523V12.7283C22.4993 11.7963 23.6286 10.5636 24.4366 9.13834C25.3546 7.51923 25.8398 5.67627 25.8398 3.80859C25.8398 2.35474 24.657 1.17188 23.2031 1.17188Z" fill="#FE9459"/>
<path d="M9.43359 3.80859C9.43359 2.35474 8.25073 1.17188 6.79688 1.17188C5.34302 1.17188 4.16016 2.35474 4.16016 3.80859C4.16016 5.67627 4.64539 7.51923 5.56343 9.13857C6.37138 10.5636 7.50069 11.7963 8.84766 12.7283V30H14.1211V20.5664H15V9.375C11.9307 9.375 9.43359 6.8779 9.43359 3.80859Z" fill="#FEB15D"/>
<path d="M15 0L14.0767 3.80859L15 7.61719C17.1034 7.61719 18.8086 5.91202 18.8086 3.80859C18.8086 1.70517 17.1034 0 15 0Z" fill="#FE9459"/>
<path d="M11.1914 3.80859C11.1914 5.91202 12.8966 7.61719 15 7.61719V0C12.8966 0 11.1914 1.70517 11.1914 3.80859Z" fill="#FEB15D"/>
</g>
<defs>
<clipPath id="clip0_106_1729">
<rect width="30" height="30" fill="white"/>
</clipPath>
</defs>
</svg>
