<svg width="30" height="30" viewBox="0 0 30 30" fill="none" xmlns="http://www.w3.org/2000/svg">
<path d="M24.6598 15.0961V0H5.34415V15.0961H0L15.002 30L30.004 15.0961H24.6598Z" fill="#FF3D7D"/>
<path d="M24.6597 15.0961V0H15.002V30L30.0039 15.0961H24.6597Z" fill="#EA1C81"/>
<path d="M15.002 7.7832L9.89722 10.7645L10.4832 12.3672L15.002 15.259L19.5208 12.3672L20.1068 10.7645L15.002 7.7832Z" fill="#FFF5F5"/>
<path d="M15.002 7.7832V15.258L19.5202 12.3666L20.1061 10.7641L15.002 7.7832Z" fill="#ECE6F2"/>
<path d="M15.002 13.6561L9.89722 10.7644V16.5612L15.002 19.5426L20.1068 16.5612V10.7644L15.002 13.6561Z" fill="#ECE6F2"/>
<path d="M15.002 13.6561V19.5426L20.1068 16.5612V10.7644L15.002 13.6561Z" fill="#DCD6E2"/>
</svg>
