<svg width="32" height="30" viewBox="0 0 32 30" fill="none" xmlns="http://www.w3.org/2000/svg">
<path d="M4.5488 0.779892C3.50819 1.8205 3.50819 3.50769 4.5488 4.54829C3.50819 3.50769 1.821 3.50769 0.780456 4.54829C-0.260152 5.58884 -0.260152 7.27603 0.780456 8.31669C1.821 9.35724 3.50819 9.35724 4.5488 8.31669C3.50819 9.35724 3.50819 11.0444 4.5488 12.085C5.06084 12.597 5.72942 12.8566 6.40051 12.8647L7.01008 6.39397L6.40051 0.000244141C5.72942 0.00835151 5.06084 0.267848 4.5488 0.779892Z" fill="#FFDF24"/>
<path d="M12.0854 4.54825C11.0448 3.50764 9.35763 3.50764 8.31708 4.54825C9.35763 3.50764 9.35763 1.82045 8.31708 0.779846C7.78846 0.251283 7.09311 -0.00821406 6.40039 0.000198097V12.8647C7.09311 12.8732 7.78846 12.6136 8.31708 12.085C9.35763 11.0444 9.35763 9.35726 8.31708 8.31671C9.35763 9.35726 11.0448 9.35726 12.0854 8.31671C13.1261 7.27598 13.1261 5.58879 12.0854 4.54825Z" fill="#FFBE2E"/>
<path d="M4.14697 6.43246C4.14697 7.67886 5.1454 8.70014 6.40039 8.71752L7.00997 6.43246L6.40039 4.14734C5.15155 4.16465 4.14697 5.17978 4.14697 6.43246Z" fill="#FC864D"/>
<path d="M6.40039 4.14733V8.71757C7.68879 8.73531 8.71879 7.69726 8.71879 6.43251C8.71879 5.16995 7.69086 4.12916 6.40039 4.14733Z" fill="#FD4D4D"/>
<path d="M22.0097 18.3646L20.7166 19.6577L25.2424 24.1836C25.599 24.5402 25.599 25.1202 25.2424 25.4767C24.8851 25.8341 24.3067 25.8341 23.9493 25.4767L19.4235 20.9508L18.1304 22.2439L22.6562 26.7698C23.7257 27.8394 25.466 27.8393 26.5356 26.7698C27.605 25.7003 27.605 23.96 26.5356 22.8905L22.0097 18.3646Z" fill="#6BA7FF"/>
<path d="M19.4234 5.43359L18.1303 6.72669L21.2069 9.80334L16.8356 8.02149L15.5439 9.31288C15.734 9.50294 18.6183 12.3872 18.8129 12.5819L20.9024 10.606L22.6922 8.70251C22.4976 8.50781 19.6135 5.62366 19.4234 5.43359Z" fill="#7DD5F4"/>
<path d="M27.333 3.98788C27.2971 3.33709 27.0316 2.69679 26.5356 2.20078L24.5959 0.261108L23.3028 1.55426L25.2424 3.49381C25.599 3.85042 25.599 4.43043 25.2425 4.78697L24.5959 5.43355L22.0096 2.8473L20.7166 4.14039L23.3028 6.72658L23.3027 6.72664C23.7051 7.12902 23.5826 7.0065 23.9855 7.40937L26.0154 5.72803L27.4017 3.99324C27.3933 3.99245 27.3528 3.98897 27.333 3.98788Z" fill="#7DD5F4"/>
<path d="M3.9062 23.5371L5.19935 22.2439L3.9062 20.9508L0.0268555 24.8302L1.31995 26.1232L2.6131 24.8302L4.58892 26.806L5.42191 26.4003L5.88202 25.5129L3.9062 23.5371Z" fill="#7DD5F4"/>
<path d="M9.07844 15.7784L7.78535 17.0715L10.3716 19.6577L9.07844 20.9508L6.49231 18.3646L5.19922 19.6577L8.46813 22.9266L10.593 21.1732L12.3474 19.0473L9.07844 15.7784Z" fill="#7DD5F4"/>
<path d="M16.1908 12.5457C15.1213 11.4762 13.3809 11.4761 12.3115 12.5457C11.2419 13.6152 11.2419 15.3555 12.3115 16.4251C13.0967 17.2103 12.8549 16.9685 13.6407 17.7543L14.5147 17.3101L14.9338 16.4612C14.148 15.6754 14.3898 15.9171 13.6045 15.1319C13.248 14.7754 13.248 14.1953 13.6045 13.8388C13.9611 13.4823 14.5411 13.4823 14.8977 13.8388C15.6939 14.635 15.4292 14.3703 16.227 15.1681L17.0928 14.6813L17.5201 13.875C16.7343 13.0892 16.976 13.3309 16.1908 12.5457Z" fill="#7DD5F4"/>
<path d="M22.0096 15.7785L23.3027 14.4853L20.1748 11.3575L24.6191 13.1691L25.8889 11.8991L22.6923 8.70251L18.813 12.5819L22.0096 15.7785Z" fill="#6BA7FF"/>
<path d="M27.8285 6.08023L29.7682 8.01984L31.0613 6.72675L29.1216 4.78714C28.6557 4.32112 28.0514 4.04443 27.4015 3.99341L23.9854 7.40954L27.182 10.6061L28.4751 9.313L25.8888 6.72681L26.5355 6.08017C26.8927 5.7229 27.4712 5.72278 27.8285 6.08023Z" fill="#6BA7FF"/>
<path d="M11.6648 26.1233L12.9579 24.8303L10.3717 22.244L11.6648 20.9509L14.2511 23.5371L15.5442 22.244L12.3475 19.0474L8.46826 22.9267L11.6648 26.1233Z" fill="#6BA7FF"/>
<path d="M4.58545 26.8038L5.87836 25.5109L9.07448 28.707L7.78157 30L4.58545 26.8038Z" fill="#6BA7FF"/>
<path d="M16.2271 15.1684L14.934 16.4615L14.9337 16.4612L13.6406 17.7543L16.8372 20.9509L18.1303 19.6578L16.2271 17.7546L17.5203 16.4614L19.4234 18.3647L20.7165 17.0716L17.52 13.875L16.2269 15.1682L16.2271 15.1684Z" fill="#6BA7FF"/>
</svg>
