<svg width="30" height="30" viewBox="0 0 30 30" fill="none" xmlns="http://www.w3.org/2000/svg">
<g clip-path="url(#clip0_147_429)">
<path d="M28.6354 26.4258V28.2422C28.6354 29.209 27.8444 30 26.8776 30H18.8268C17.4557 30 16.0846 29.6308 14.8893 28.9453L7.22521 24.457L2.25054 21.5918C1.8463 21.3457 1.54748 20.9765 1.42443 20.5195C1.30138 20.0625 1.37164 19.5878 1.60015 19.1836L2.47906 17.6543L5.11578 17.9003L9.45763 20.1504L18.1412 24.668H26.8775L28.6354 26.4258Z" fill="#55696E"/>
<path d="M28.6354 26.4258V28.2422C28.6354 29.209 27.8444 30 26.8776 30H18.8268C17.4557 30 16.0846 29.6308 14.8893 28.9453L7.22522 24.457L9.4577 20.1504L18.1413 24.668H26.8776L28.6354 26.4258Z" fill="#323C3C"/>
<path d="M28.6354 24.668V26.4258H17.6666L8.84235 21.3281L2.47913 17.6543L3.35803 16.1425L4.44788 14.2441C5.81903 11.871 7.77014 9.84961 10.0905 8.39056L12.1647 7.0722L11.3913 9.41015C10.8639 10.9745 11.532 12.7324 12.9557 13.5586C14.3972 14.4023 16.2429 14.1035 17.3503 12.8554L18.2994 11.7831L19.7935 15.5097L18.5104 16.3184L20.444 17.1445L21.358 19.3945L19.8463 20.2734L22.0612 21.1523H25.1198C27.0533 21.1523 28.6354 22.7343 28.6354 24.668Z" fill="#9EE0FF"/>
<path d="M28.6354 24.668V26.4258H17.6667L8.84241 21.3281L12.0768 15.0878L12.9557 13.5585C14.3972 14.4022 16.2429 14.1035 17.3503 12.8554L18.2994 11.7831L19.7935 15.5097L18.5104 16.3184L20.4441 17.1445L21.3581 19.3945L19.8464 20.2734L22.0612 21.1523H25.1198C27.0533 21.1523 28.6354 22.7343 28.6354 24.668Z" fill="#73BCFF"/>
<path d="M18.0886 21.1523H22.0549L21.3497 19.3945H18.0886V21.1523Z" fill="#323C3C"/>
<path d="M17.2019 18.0144L20.4471 17.1448L19.788 15.5018L16.7471 16.3167L17.2019 18.0144Z" fill="#323C3C"/>
<path d="M23.7546 5.27344C23.6491 5.4668 18.4577 14.2792 18.4577 14.2792C16.4362 15.9316 14.2917 16.371 12.0769 15.0879C9.8972 13.8222 9.17644 11.6777 9.58073 9.16406C9.72142 8.91797 14.6316 0 14.6316 0L19.2019 2.63672L23.7546 5.27344Z" fill="#FED2A4"/>
<path d="M23.7546 5.27344C23.6491 5.4668 18.4578 14.2792 18.4578 14.2792C16.4362 15.9316 14.2917 16.371 12.0769 15.0879L19.2019 2.63672L23.7546 5.27344Z" fill="#FFBD86"/>
</g>
<defs>
<clipPath id="clip0_147_429">
<rect width="30" height="30" fill="white"/>
</clipPath>
</defs>
</svg>
