<svg width="30" height="30" viewBox="0 0 30 30" fill="none" xmlns="http://www.w3.org/2000/svg">
<path d="M0 8.08618C0 10.3836 1.86246 12.246 4.15986 12.246H5.39965L6.83971 10.2539L5.39965 8.08618H0Z" fill="#FFCCBD"/>
<path d="M3.77849 25.3259C2.51662 26.136 2.22845 27.8576 3.15763 29.0345C3.96787 30.0607 5.42515 30.3034 6.52425 29.5952L7.28468 29.1207L7.77722 25.2538L4.69132 24.7368L3.77849 25.3259Z" fill="#FFCCBD"/>
<path d="M20.886 27.7973C21.2591 29.1012 22.4511 30 23.8074 30H26.7075L25.3448 25.7444L22.4842 24.375L20.7175 27.2087L20.886 27.7973Z" fill="#FFBDA9"/>
<path d="M23.5757 8.08618L23.1287 10.1953L23.5757 12.246H24.9464C27.2438 12.246 29.1062 10.3836 29.1062 8.08618H23.5757Z" fill="#FFBDA9"/>
<path d="M10.2106 19.526L9.55105 20.3496C8.17809 22.0642 6.53705 23.5458 4.69141 24.7368L7.28471 29.1207L8.72553 28.2216C10.2122 27.2938 11.5729 26.1782 12.7743 24.9025L13.994 23.6072L14.5156 21.0351L13.994 19.2377L10.2106 19.526Z" fill="#B460E7"/>
<path d="M20.4613 18.718L17.7774 17.9681L13.9939 19.2377V23.6073L14.4539 23.1188L17.51 23.2382C18.7644 23.2872 19.8451 24.1374 20.1881 25.345L20.7175 27.2087L25.3448 25.7444L24.2694 22.3861C23.6978 20.6007 22.2668 19.2224 20.4613 18.718Z" fill="#A04CD9"/>
<path d="M5.39966 8.08618V12.246H10.2105V19.526C10.2105 19.526 11.8759 19.6378 13.994 19.2377L14.8671 13.5937L13.994 8.08618H5.39966Z" fill="#FEC258"/>
<path d="M13.9939 8.08618V19.2377C15.1839 19.0129 16.5167 18.6266 17.7774 17.9681V12.246H23.5757V8.08618H13.9939Z" fill="#FD996B"/>
<path d="M11.1733 4.52281V5.26542C11.1733 6.82332 12.4363 8.08619 13.9941 8.08619L14.9258 5.56642L13.9941 3.245L11.1733 4.52281Z" fill="#FFCCBD"/>
<path d="M16.6986 2.01978L13.9939 3.24503V8.08628C15.5518 8.08628 16.8147 6.82335 16.8147 5.26552V2.82081C16.8147 2.54243 16.7737 2.27378 16.6986 2.01978Z" fill="#FFBDA9"/>
<path d="M11.1733 2.82076V4.52279C11.6416 4.49912 12.7937 4.39559 13.9941 3.95139V0C12.4363 0 11.1733 1.26293 11.1733 2.82076Z" fill="#463B84"/>
<path d="M16.6986 2.01973C16.3533 0.852188 15.2734 0 13.9939 0V3.95145C14.9803 3.58641 15.9993 2.99162 16.6986 2.01973Z" fill="#392E6E"/>
</svg>
